{"glyphs":{"0":{"ha":488,"x_min":0,"x_max":0,"o":"m 229 733 b 308 789 257 753 282 772 b 369 818 328 800 349 811 b 488 736 428 836 485 797 b 479 631 489 701 488 665 b 256 210 446 468 375 325 b 156 138 226 181 192 156 b -4 228 76 99 3 140 b 4 381 -8 278 -4 331 b 92 642 19 471 50 558 b 135 714 104 667 118 692 b 229 733 165 757 181 760 m 422 786 b 367 763 401 778 383 772 b 199 626 303 726 247 679 b 119 501 164 590 132 551 b 113 488 118 496 115 488 b 76 431 81 481 82 453 b 56 339 68 401 61 371 b 58 192 49 290 42 240 b 114 167 69 157 83 149 b 214 239 150 188 185 210 b 428 649 328 353 397 490 b 422 786 436 690 444 735 "},"1":{"ha":282,"x_min":0,"x_max":0,"o":"m 74 28 b -10 83 26 19 -4 40 b -8 154 -12 107 -11 131 b 71 424 7 247 38 336 b 189 718 108 521 149 618 b 164 700 181 711 172 706 b 67 610 132 669 100 639 b 39 597 60 603 49 597 b 15 613 31 597 18 604 b 24 638 13 618 18 631 b 246 849 97 708 171 778 b 296 857 261 863 276 867 b 314 814 318 847 324 838 b 282 749 304 792 293 771 b 61 189 190 569 115 383 b 47 122 56 167 50 144 b 74 28 44 89 40 56 "},"2":{"ha":479,"x_min":0,"x_max":0,"o":"m 42 92 b 15 143 7 106 8 108 b 110 322 31 213 74 267 b 324 640 179 429 253 535 b 388 747 346 675 368 711 b 407 806 397 764 401 786 b 346 811 383 819 364 815 b 144 689 265 792 200 747 b 53 572 110 653 82 613 b 24 511 40 554 33 532 b -15 557 -14 511 -31 528 b 346 851 63 707 171 821 b 400 846 363 854 383 851 b 450 760 440 833 460 800 b 419 685 443 733 433 707 b 297 490 381 619 339 554 b 138 254 244 411 190 332 b 113 213 129 242 122 229 b 243 246 160 225 200 238 b 378 251 288 256 332 264 b 433 182 414 240 429 224 b 406 197 422 188 411 190 b 356 215 392 214 374 218 b 107 144 268 207 185 188 b 42 92 85 132 67 113 "},"3":{"ha":463,"x_min":0,"x_max":0,"o":"m 22 281 b 51 229 58 264 58 264 b 92 129 43 188 61 154 b 135 124 101 121 121 121 b 172 144 149 126 161 136 b 358 424 261 219 325 311 b 367 482 364 442 367 463 b 297 533 367 535 347 549 b 278 528 290 532 285 529 b 219 539 249 518 235 521 b 224 589 204 557 214 574 b 300 722 249 633 276 678 b 335 807 314 749 322 776 b 42 535 253 789 104 650 b 17 589 4 549 -1 558 b 269 838 81 692 164 775 b 293 847 276 842 285 844 b 374 785 338 861 378 832 b 351 708 371 758 363 732 b 288 582 333 667 311 628 b 372 556 321 583 349 576 b 414 415 415 518 424 468 b 225 100 388 289 324 183 b 82 96 176 58 135 60 b 3 208 42 124 13 160 b 22 281 -3 235 1 258 "},"4":{"ha":533,"x_min":0,"x_max":0,"o":"m 293 26 b 247 85 251 26 235 44 b 300 233 261 135 281 185 b 361 371 318 279 339 324 b 342 371 351 371 346 372 b 11 261 229 342 115 317 b -54 283 -18 246 -28 250 b 24 378 -28 314 -3 346 b 406 863 160 532 286 694 b 463 857 428 893 436 893 b 290 600 414 767 353 683 b 96 356 228 518 163 439 b 115 356 104 356 110 354 b 354 417 194 376 274 397 b 408 458 379 422 396 435 b 494 600 435 507 465 553 b 525 635 503 613 514 625 b 586 635 550 660 560 660 b 517 528 564 599 539 564 b 313 103 438 392 368 250 b 293 26 303 79 300 54 "},"5":{"ha":554,"x_min":0,"x_max":0,"o":"m 606 799 b 257 749 490 750 372 740 b 149 510 219 667 185 590 b 188 521 161 514 174 517 b 317 535 229 533 272 538 b 483 321 435 528 508 436 b 256 67 456 196 378 107 b 6 82 172 39 86 49 b -44 115 -12 90 -29 101 b -53 168 -58 128 -68 143 b -18 143 -40 160 -22 154 b 42 107 -6 115 18 113 b 378 246 185 76 293 133 b 431 361 404 279 424 318 b 433 403 433 375 435 389 b 344 493 431 460 401 489 b 100 424 254 500 174 472 b 26 440 60 399 57 399 b 61 500 38 458 49 481 b 199 774 117 586 171 674 b 231 796 204 789 214 797 b 251 796 238 796 244 797 b 533 828 347 793 442 801 b 606 799 563 836 588 833 "},"6":{"ha":478,"x_min":0,"x_max":0,"o":"m 101 399 b 214 419 142 407 178 414 b 379 385 274 429 329 422 b 394 235 436 342 443 285 b 147 111 326 165 243 125 b 64 121 121 107 90 111 b -21 249 6 142 -22 186 b 10 372 -21 292 -8 333 b 338 779 88 533 196 669 b 418 826 363 799 390 814 b 457 825 429 832 446 831 b 464 782 479 815 481 800 b 438 751 456 772 447 763 b 388 746 421 757 404 758 b 103 410 269 654 176 539 b 101 399 101 408 103 404 m 274 376 b 117 346 219 376 167 365 b 36 244 69 328 44 293 b 126 153 25 172 56 140 b 336 257 206 167 276 201 b 368 307 350 269 361 289 b 329 372 379 340 364 365 b 274 376 311 376 292 375 "},"7":{"ha":524,"x_min":0,"x_max":0,"o":"m 282 393 b 383 379 318 389 350 385 b 406 356 390 378 396 368 b 283 343 361 351 322 344 b 217 303 251 342 232 328 b 89 83 175 229 131 157 b 71 8 76 61 64 38 b 15 60 28 8 8 25 b 39 124 19 82 28 103 b 122 274 65 174 94 224 b 147 315 129 286 138 299 b 33 283 104 318 69 306 b -6 315 22 293 10 303 b 186 376 51 365 121 361 b 501 765 275 513 381 639 b 458 753 481 760 469 757 b 203 719 375 729 290 713 b 96 761 163 722 125 735 b 115 796 43 806 97 829 b 194 760 132 761 164 761 b 375 781 256 756 317 764 b 556 842 436 799 496 821 b 578 851 564 844 571 847 b 626 840 600 860 615 856 b 617 800 639 824 628 813 b 422 583 551 729 485 658 b 300 422 379 532 340 476 b 282 393 293 414 288 403 "},"8":{"ha":450,"x_min":0,"x_max":0,"o":"m 268 392 b 300 357 279 379 290 369 b 315 238 329 321 340 278 b 74 89 260 150 181 92 b -33 213 -3 86 -46 138 b 83 431 -19 297 28 367 b 110 458 92 440 100 450 b 111 464 110 460 110 461 b 135 642 78 528 94 588 b 403 815 201 735 289 794 b 449 813 418 818 435 817 b 496 726 493 803 513 768 b 451 644 485 697 468 669 b 310 451 406 579 357 517 b 268 392 296 432 282 413 m 157 422 b 24 189 93 354 44 279 b 24 151 21 176 21 163 b 64 124 29 128 40 119 b 256 247 143 142 208 181 b 268 324 271 269 278 296 b 239 356 264 339 257 350 b 178 404 214 363 192 378 b 157 422 175 410 167 414 m 454 769 b 447 779 453 774 450 776 b 407 774 435 778 421 778 b 176 604 310 746 232 690 b 150 538 164 585 156 561 b 150 494 146 522 150 503 b 236 451 183 478 207 467 b 454 769 303 557 394 653 "},"9":{"ha":454,"x_min":0,"x_max":0,"o":"m -15 158 b 53 94 18 150 18 150 b 96 118 67 103 83 108 b 311 407 193 194 260 293 b 281 389 301 401 292 394 b 146 331 236 369 192 343 b -4 451 58 306 -8 363 b 35 581 -3 499 13 540 b 246 799 85 672 156 744 b 296 822 261 808 279 815 b 467 710 396 863 464 781 b 451 567 469 661 464 613 b 222 144 406 408 339 263 b 136 74 196 118 168 93 b -15 158 64 26 -8 67 m 418 713 b 415 749 417 722 417 736 b 351 792 407 786 388 800 b 299 774 333 788 315 782 b 64 518 193 714 111 632 b 46 415 51 486 46 450 b 107 371 46 369 63 360 b 346 511 199 396 278 444 b 383 561 361 526 375 543 b 418 713 404 608 415 658 "},"\u0000":{"ha":0,"x_min":0,"x_max":0,"o":""},"\r":{"ha":481,"x_min":0,"x_max":0,"o":""}," ":{"ha":558,"x_min":0,"x_max":0,"o":""},"%":{"ha":703,"x_min":0,"x_max":0,"o":"m 138 49 b 82 111 101 50 75 75 b 103 171 86 132 92 153 b 218 369 140 238 178 304 b 529 758 308 510 414 638 b 608 861 558 788 590 817 b 501 858 569 868 535 865 b 339 822 447 847 393 836 b 285 797 321 818 303 808 b 235 683 238 768 225 739 b 243 603 239 657 242 629 b 211 546 243 579 231 560 b 38 547 164 514 83 515 b 1 656 -1 575 -15 611 b 163 821 31 733 86 788 b 186 826 169 825 181 829 b 253 843 214 815 232 833 b 369 883 290 858 329 872 b 571 907 435 901 503 911 b 613 901 585 907 600 906 b 647 800 663 883 678 843 b 538 665 614 753 575 708 b 201 210 413 524 299 372 b 149 113 182 179 164 146 b 138 49 142 94 142 72 m 175 774 b 49 615 115 733 71 683 b 46 603 47 611 46 607 b 78 567 46 581 54 568 b 140 571 99 565 119 565 b 193 653 185 582 199 606 b 175 774 188 690 182 729 m 524 328 b 529 325 528 326 528 326 b 596 181 610 307 628 261 b 485 79 575 129 540 92 b 369 172 421 64 364 107 b 468 358 376 247 414 308 b 524 328 490 381 511 368 m 424 118 b 563 268 499 111 578 199 b 539 286 560 282 551 285 b 450 240 499 290 469 263 b 424 118 424 210 410 165 "},"&":{"ha":944,"x_min":0,"x_max":0,"o":"m 614 415 b 588 390 604 407 596 399 b 550 390 575 376 561 381 b 546 424 538 400 538 411 b 615 483 563 451 586 471 b 828 517 683 515 754 525 b 893 490 850 515 872 501 b 917 460 903 483 910 469 b 910 450 915 456 913 453 b 882 463 900 454 889 456 b 826 478 865 476 846 478 b 671 449 774 479 722 468 b 581 214 685 353 643 279 b 328 47 510 139 425 82 b 165 44 274 28 219 21 b 106 211 89 79 67 138 b 174 303 122 244 146 278 b 335 443 224 351 278 394 b 294 443 321 443 307 443 b 139 461 242 440 190 446 b 36 521 100 472 65 492 b 11 644 0 556 -11 600 b 79 736 29 678 53 710 b 261 853 131 788 196 822 b 703 1004 403 921 553 963 b 826 1039 744 1015 785 1028 b 879 1006 858 1047 864 1043 b 867 996 875 1003 871 999 b 572 701 738 928 644 824 b 551 563 538 643 533 628 b 511 582 531 554 519 568 b 501 676 492 611 489 644 b 564 796 519 718 539 760 b 675 935 596 844 636 888 b 660 936 668 936 664 938 b 279 800 529 900 401 860 b 103 675 215 767 151 731 b 58 600 85 653 68 626 b 97 518 44 561 58 532 b 196 494 128 506 163 497 b 443 522 281 483 363 499 b 511 511 468 531 490 532 b 508 475 526 497 526 486 b 467 451 494 465 481 458 b 225 278 379 403 296 350 b 176 219 208 260 192 239 b 151 171 167 204 157 188 b 225 76 126 104 156 65 b 318 106 257 82 289 93 b 553 279 408 147 488 206 b 614 415 593 326 611 363 "},"_":{"ha":342,"x_min":0,"x_max":0,"o":"m 31 231 b 225 239 94 243 160 249 b 253 215 238 238 250 235 b 228 206 244 211 236 206 b 131 199 196 203 163 201 b 42 192 101 197 71 193 b 31 231 3 189 -28 218 "},"?":{"ha":714,"x_min":0,"x_max":0,"o":"m 113 715 b 21 771 69 714 40 736 b 35 861 3 803 11 835 b 86 906 49 878 67 894 b 547 972 232 985 385 1010 b 636 924 581 965 611 949 b 640 796 676 881 679 840 b 581 742 622 775 601 757 b 426 635 529 706 476 671 b 311 547 386 607 347 578 b 249 476 288 526 267 503 b 200 310 215 428 189 374 b 151 356 167 317 154 328 b 156 418 150 376 150 399 b 275 611 175 494 213 561 b 449 735 331 654 390 693 b 572 825 489 764 532 793 b 611 892 593 842 618 861 b 544 929 604 922 569 924 b 143 871 404 956 271 936 b 81 815 119 858 97 838 b 93 746 57 786 63 768 b 113 715 104 739 117 733 m 190 179 b 117 199 167 153 117 143 b 138 231 117 211 128 226 b 190 179 165 240 217 207 "},">":{"ha":438,"x_min":0,"x_max":0,"o":"m 311 469 b 333 418 342 449 346 428 b 258 383 314 406 285 394 b 97 322 204 363 151 342 b 46 336 38 303 8 311 b 225 419 89 364 204 411 b 267 432 239 425 253 429 b 263 435 265 432 264 433 b 143 514 222 461 183 486 b 133 565 103 546 96 575 b 311 469 175 554 294 481 "},"^":{"ha":497,"x_min":0,"x_max":0,"o":"m 411 693 b 325 749 365 686 332 707 b 311 849 319 779 321 810 b 294 819 306 839 301 829 b 201 714 264 785 233 749 b 144 717 181 690 176 692 b 156 738 147 724 151 731 b 336 964 215 813 276 888 b 382 978 349 981 361 989 b 404 929 404 965 410 958 b 381 813 396 890 388 851 b 376 758 378 794 378 776 b 399 711 376 739 381 721 b 411 693 404 708 407 700 "},"]":{"ha":450,"x_min":0,"x_max":0,"o":"m 471 1111 b 367 1114 433 1128 394 1092 b 351 1132 361 1117 358 1124 b 379 1151 363 1140 371 1149 b 469 1168 410 1157 440 1165 b 514 1157 483 1169 501 1164 b 531 1099 538 1143 543 1129 b 492 1006 519 1068 506 1036 b 199 301 378 774 285 539 b 90 3 164 203 125 103 b 44 -37 82 -25 69 -35 b -24 -49 22 -39 0 -46 b -74 -32 -42 -50 -61 -51 b 19 11 -51 4 -12 -6 b 471 1111 149 382 288 753 "},"=":{"ha":418,"x_min":0,"x_max":0,"o":"m 50 408 b 279 421 126 414 203 418 b 256 385 318 421 281 386 b 68 376 193 382 131 379 b 50 408 38 376 18 397 m 108 501 b 228 510 139 507 178 510 b 324 496 260 508 294 518 b 279 475 317 474 294 475 b 106 471 224 475 165 465 b 108 501 31 476 46 486 "},"<":{"ha":414,"x_min":0,"x_max":0,"o":"m 76 408 b 54 460 46 429 42 450 b 129 494 74 472 103 483 b 290 556 183 515 236 536 b 342 542 350 575 379 567 b 163 458 299 514 183 467 b 121 446 149 453 135 449 b 125 443 122 446 124 444 b 244 364 165 417 204 392 b 254 313 285 332 292 303 b 76 408 213 324 93 397 "},"[":{"ha":326,"x_min":0,"x_max":0,"o":"m 503 1131 b 458 1122 486 1126 474 1122 b 404 1082 432 1122 414 1108 b 240 664 350 943 290 803 b 19 29 164 453 92 240 b 7 -14 14 15 13 0 b 104 -39 35 -32 76 -4 b 69 -56 90 -44 81 -54 b -29 -54 38 -57 3 -58 b -64 10 -72 -49 -79 -33 b 36 285 -31 101 4 193 b 210 776 94 447 149 613 b 353 1114 254 890 304 1003 b 426 1167 369 1156 385 1165 b 467 1167 440 1168 453 1168 b 503 1131 486 1165 501 1157 "},"\\":{"ha":622,"x_min":0,"x_max":0,"o":"m -3 964 b 64 968 28 1000 39 1000 b 85 942 71 960 78 950 b 550 135 263 686 413 414 b 586 42 564 104 574 72 b 515 53 546 13 533 15 b 436 217 490 108 464 164 b 26 914 308 454 171 688 b -3 964 17 931 7 949 "},";":{"ha":249,"x_min":0,"x_max":0,"o":"m 100 281 b 42 293 79 240 24 251 b 56 372 51 319 47 346 b 99 397 61 392 79 400 b 100 281 153 388 111 307 m 133 531 b 100 564 108 532 99 540 b 143 622 100 596 121 622 b 185 582 165 622 185 603 b 133 531 183 553 161 531 "},"'":{"ha":297,"x_min":0,"x_max":0,"o":"m 156 804 b 204 886 172 832 188 860 b 244 900 217 907 226 910 b 251 861 263 890 263 874 b 156 804 219 826 201 774 "},"@":{"ha":872,"x_min":0,"x_max":0,"o":"m 392 486 b 343 449 375 472 360 460 b 299 422 329 439 315 428 b 222 488 256 407 213 442 b 347 679 239 567 281 632 b 435 685 374 699 404 700 b 467 615 467 669 474 656 b 417 657 436 608 426 632 b 282 476 340 617 311 547 b 333 507 304 479 318 494 b 381 551 350 521 365 536 b 424 557 393 564 407 565 b 446 521 439 550 449 539 b 446 504 446 515 446 510 b 488 468 449 474 456 467 b 517 474 497 469 507 471 b 746 847 676 518 779 686 b 572 992 725 943 671 989 b 318 889 474 993 390 953 b 68 369 164 750 78 578 b 82 243 67 328 71 283 b 304 115 122 113 188 90 b 485 201 371 129 429 163 b 735 425 576 267 656 346 b 765 456 744 436 754 446 b 824 454 785 475 790 475 b 800 421 815 443 808 431 b 536 172 718 332 633 246 b 347 76 479 129 417 94 b 3 313 168 31 22 129 b 131 785 -15 486 35 642 b 286 951 172 849 225 906 b 501 1039 350 1000 421 1033 b 792 653 736 1056 864 854 b 568 439 754 546 674 476 b 392 486 500 414 440 429 "},"(":{"ha":365,"x_min":0,"x_max":0,"o":"m 521 1092 b 115 593 328 968 194 801 b 69 381 89 525 76 453 b 108 161 63 304 74 231 b 272 19 143 92 192 36 b 301 4 282 18 289 11 b 250 -7 285 -15 268 -11 b 43 163 156 18 86 75 b 11 475 -6 263 -10 368 b 388 1068 58 722 192 915 b 460 1113 410 1086 435 1100 b 521 1092 488 1126 497 1121 "},")":{"ha":406,"x_min":0,"x_max":0,"o":"m 90 1104 b 128 1108 101 1121 115 1114 b 213 1040 163 1094 192 1071 b 342 718 279 943 326 839 b 296 317 360 581 347 446 b -43 -10 232 156 118 49 b -133 11 -85 -25 -99 -21 b -76 42 -114 24 -94 35 b 121 179 0 74 67 119 b 186 268 146 207 169 236 b 285 721 264 408 299 558 b 196 992 276 819 246 907 b 106 1083 174 1031 153 1069 b 96 1092 101 1085 99 1088 b 90 1104 93 1096 92 1100 "},"*":{"ha":426,"x_min":0,"x_max":0,"o":"m 239 953 b 257 1004 247 975 251 990 b 288 1025 263 1018 268 1032 b 303 992 306 1019 307 1007 b 299 972 301 986 301 981 b 372 967 324 969 349 999 b 286 915 350 940 311 940 b 347 846 306 893 325 869 b 268 882 324 838 324 838 b 238 793 257 851 247 822 b 210 771 233 779 231 765 b 194 804 192 775 190 789 b 214 879 199 825 206 847 b 167 843 192 863 179 854 b 115 849 149 828 133 829 b 217 928 139 886 181 900 b 142 999 192 951 167 975 b 193 992 165 1021 179 1004 b 239 953 207 981 221 968 "},"+":{"ha":367,"x_min":0,"x_max":0,"o":"m 144 483 b 164 540 151 500 157 521 b 208 561 172 561 189 569 b 221 522 228 554 225 539 b 213 483 217 510 215 496 b 281 467 236 478 257 472 b 239 444 271 443 254 446 b 189 403 199 442 199 442 b 169 321 182 375 176 347 b 119 358 126 310 115 318 b 132 431 122 382 128 406 b 35 453 101 446 64 421 b 144 483 67 485 111 460 "},",":{"ha":200,"x_min":0,"x_max":0,"o":"m 106 253 b 56 263 88 219 40 229 b 68 328 64 285 61 307 b 104 349 72 344 88 351 b 106 253 151 342 115 275 "},"-":{"ha":374,"x_min":0,"x_max":0,"o":"m 94 451 b 226 461 139 454 182 460 b 283 453 246 461 267 458 b 274 415 318 442 293 422 b 257 415 271 413 263 415 b 149 410 221 413 185 411 b 94 451 99 408 -14 440 "},".":{"ha":182,"x_min":0,"x_max":0,"o":"m 71 268 b 38 301 46 269 36 278 b 81 360 38 333 58 360 b 122 319 103 360 122 340 b 71 268 121 290 99 268 "},"/":{"ha":475,"x_min":0,"x_max":0,"o":"m 586 964 b 557 914 576 949 567 931 b 147 217 413 688 275 454 b 68 53 119 164 93 108 b -3 42 50 15 38 13 b 33 135 10 72 19 104 b 499 942 171 414 321 686 b 519 968 506 950 513 960 b 586 964 544 1000 556 1000 "},"$":{"ha":639,"x_min":0,"x_max":0,"o":"m 604 1019 b 526 900 578 978 551 939 b 576 861 546 886 563 875 b 593 760 607 832 613 797 b 493 664 571 718 536 686 b 444 686 469 650 457 665 b 467 704 453 693 460 699 b 539 775 492 728 517 750 b 556 814 549 785 551 800 b 539 849 558 828 556 843 b 493 839 522 854 506 857 b 492 835 493 838 492 836 b 371 592 451 754 411 674 b 424 554 392 578 408 567 b 478 376 482 510 500 446 b 417 279 465 339 443 308 b 208 156 364 224 315 196 b 185 56 200 124 192 89 b 144 92 146 56 140 61 b 154 156 146 113 151 133 b 124 164 142 160 133 161 b 22 440 11 203 -39 333 b 104 536 43 476 75 507 b 156 521 121 554 128 550 b 115 481 142 508 129 493 b 47 351 81 443 51 403 b 54 275 46 326 47 300 b 164 208 69 218 100 200 b 297 564 207 325 251 443 b 256 572 282 567 268 568 b 186 600 232 581 206 586 b 172 678 156 621 151 647 b 238 750 192 704 214 728 b 444 889 299 808 364 860 b 475 917 457 893 467 906 b 547 1021 500 951 522 988 b 604 1019 569 1050 576 1049 m 229 239 b 239 232 232 236 235 233 b 408 374 307 264 367 308 b 432 428 418 390 426 408 b 351 550 449 493 422 535 b 229 239 311 447 269 343 m 207 622 b 318 606 251 615 285 610 b 413 803 351 674 382 739 b 207 622 333 758 268 701 "},"`":{"ha":376,"x_min":0,"x_max":0,"o":"m 333 856 b 258 858 297 836 278 846 b 99 1003 196 897 147 950 b 63 1044 86 1015 75 1029 b 124 1043 88 1063 106 1060 b 164 1000 138 1029 150 1014 b 308 869 208 951 253 904 b 333 856 314 865 321 863 "},"w":{"ha":514,"x_min":0,"x_max":0,"o":"m 171 385 b 110 313 147 357 129 333 b 63 263 94 294 79 278 b 0 257 43 246 21 244 b 61 572 -68 297 15 504 b 99 600 71 586 76 603 b 132 564 118 597 129 589 b 68 343 93 557 1 251 b 172 478 104 388 139 432 b 211 497 183 490 193 500 b 244 458 236 494 247 482 b 232 351 240 422 233 388 b 310 313 228 251 269 265 b 451 679 385 399 447 593 b 496 642 490 686 503 678 b 322 267 468 497 422 367 b 224 246 294 239 261 231 b 174 324 188 258 179 290 b 171 385 171 342 172 360 "},"x":{"ha":300,"x_min":0,"x_max":0,"o":"m 228 607 b 286 599 247 621 267 621 b 235 558 268 585 250 572 b 68 394 179 504 124 450 b 54 365 61 388 54 375 b 168 301 58 271 118 272 b 289 417 219 331 264 390 b 313 403 317 442 329 419 b 1 321 251 315 61 124 b -76 221 -26 285 -51 253 b -115 249 -101 189 -143 210 b -26 364 -86 288 -57 326 b -7 417 -14 381 -7 396 b 1 549 -7 461 -3 504 b 25 576 3 563 4 578 b 56 543 43 575 57 561 b 50 463 56 517 51 489 b 228 607 100 504 176 574 "},"y":{"ha":590,"x_min":0,"x_max":0,"o":"m 399 539 b 336 489 374 519 354 504 b 122 326 264 435 193 381 b 60 289 103 313 81 301 b -11 297 35 276 10 281 b -31 363 -33 315 -36 338 b 72 592 -10 446 28 521 b 135 590 93 622 114 621 b 140 576 138 585 139 579 b 111 553 129 568 115 563 b 79 360 89 503 -32 276 b 368 583 175 433 272 508 b 406 613 381 593 393 603 b 449 613 419 624 433 621 b 469 574 464 603 472 590 b 463 544 467 564 465 554 b 397 340 443 479 413 403 b 564 417 450 363 515 386 b 615 406 594 436 607 442 b 411 304 547 360 476 333 b 374 263 390 296 381 282 b 297 68 350 197 325 132 b 178 -101 268 4 231 -54 b -72 -117 100 -169 14 -175 b -100 32 -132 -76 -144 -26 b -1 131 -72 68 -37 101 b 292 303 88 201 189 256 b 350 368 322 317 342 335 b 390 499 361 413 376 456 b 399 539 393 508 394 519 m 310 271 b -67 -25 190 214 -15 94 b -43 -99 -81 -56 -72 -79 b 82 -101 -3 -125 40 -124 b 178 -14 121 -82 151 -49 b 290 201 226 53 261 125 b 310 271 296 217 301 249 "},"z":{"ha":499,"x_min":0,"x_max":0,"o":"m -6 -104 b -100 -153 -35 -124 -68 -139 b -146 -158 -114 -158 -131 -160 b -204 -49 -208 -151 -236 -101 b -142 26 -187 -21 -165 4 b 72 175 -78 86 -4 132 b 207 246 117 200 161 225 b 203 388 275 275 328 435 b 143 400 172 378 157 381 b 154 454 128 422 143 438 b 239 561 183 489 211 525 b 247 581 243 565 246 572 b 25 389 157 535 76 479 b 3 449 -11 406 -15 419 b 32 486 11 463 21 475 b 214 625 83 543 146 589 b 261 642 229 632 246 639 b 315 574 303 647 331 613 b 283 519 307 554 294 538 b 233 451 268 497 251 475 b 336 372 292 442 328 419 b 336 317 339 354 339 336 l 474 408 b 518 422 496 424 507 432 b 518 388 535 406 528 400 b 319 258 485 350 394 301 b -6 -104 264 114 88 -39 m 183 174 b -40 32 111 140 21 81 b -128 -49 -71 8 -100 -19 b -160 -114 -143 -64 -156 -82 b 183 174 -22 -54 96 64 "},"{":{"ha":331,"x_min":0,"x_max":0,"o":"m 65 4 b 185 -24 103 -26 156 15 b 146 -44 176 -43 160 -44 b 56 -40 117 -46 85 -46 b -3 44 4 -31 -10 -10 b 29 193 4 96 14 143 b 92 372 47 254 71 313 b 79 482 106 415 101 450 b 90 540 60 510 61 522 b 308 865 211 621 264 742 b 343 976 319 901 328 939 b 490 1140 369 1051 419 1107 b 569 1114 532 1157 553 1150 b 382 903 467 1079 410 1006 b 313 710 364 838 340 772 b 122 492 272 621 218 540 b 138 281 186 429 164 356 b 79 100 117 219 96 161 b 65 4 68 67 69 33 "},"|":{"ha":236,"x_min":0,"x_max":0,"o":"m 10 3 b 58 326 25 110 39 218 b 168 864 89 507 119 688 b 185 921 174 883 178 901 b 221 944 193 946 200 949 b 243 906 243 940 247 924 b 207 731 231 847 217 789 b 76 7 163 489 119 249 b 74 -36 75 -7 74 -22 b 44 -64 74 -57 63 -64 b 13 -36 26 -62 14 -57 b 13 1 13 -24 13 -11 b 10 3 13 1 11 3 "},"}":{"ha":461,"x_min":0,"x_max":0,"o":"m 314 1125 b 433 1140 357 1149 396 1149 b 489 1038 479 1129 501 1086 b 456 954 482 1010 471 981 b 325 690 415 867 369 779 b 294 585 310 657 304 621 b 318 503 283 551 294 525 b 347 467 328 493 335 481 b 301 446 326 456 314 449 b 231 379 265 436 243 413 b 138 135 199 299 169 217 b 99 29 125 100 113 64 b -69 -40 75 -28 -26 -64 b -108 -7 -81 -33 -90 -22 b -71 3 -87 0 -79 4 b 26 56 -29 1 6 17 b 72 164 46 90 57 128 b 154 381 101 236 126 311 b 264 494 174 432 200 475 b 253 689 208 550 221 619 b 374 926 290 769 332 847 b 425 1028 390 960 410 993 b 439 1067 432 1040 436 1054 b 406 1107 444 1097 435 1108 b 358 1100 389 1106 374 1101 b 314 1125 333 1096 333 1097 "},"~":{"ha":578,"x_min":0,"x_max":0,"o":"m 531 471 b 388 381 488 428 443 393 b 271 451 338 368 286 401 b 265 479 268 460 267 469 b 100 314 201 461 115 374 b 63 374 53 315 39 335 b 232 525 104 440 163 490 b 328 475 275 547 318 524 b 340 417 332 458 335 440 b 390 435 360 424 375 428 b 465 482 415 449 440 465 b 531 471 494 499 493 499 "},"¥":{"ha":531,"x_min":0,"x_max":0,"o":"m 165 78 b 107 121 122 75 107 85 b 118 188 108 143 114 165 b 135 242 122 203 126 217 b 56 206 103 228 78 218 b 3 219 35 193 19 194 b 25 240 10 226 17 235 b 126 285 58 256 92 274 b 174 329 150 293 165 306 b 197 388 179 347 188 365 b 46 332 139 378 92 358 b -4 347 21 318 21 318 b 182 432 44 399 113 410 b 115 572 124 465 117 518 b 163 831 111 663 132 747 b 171 850 164 838 167 844 b 213 864 181 868 196 872 b 222 828 231 856 228 843 b 172 574 196 746 174 661 b 192 469 172 540 171 506 b 222 492 203 478 214 482 b 319 614 256 532 288 574 b 461 790 367 674 413 733 b 529 788 485 818 500 815 b 301 449 439 688 369 572 b 400 446 339 447 369 449 b 475 394 428 443 458 438 b 279 404 407 422 344 410 b 239 321 267 379 254 353 b 308 333 267 326 288 331 b 364 336 326 336 346 338 b 401 303 381 335 394 325 b 246 278 344 308 296 289 b 203 240 224 272 211 261 b 165 78 183 188 158 136 "},"¤":{"ha":442,"x_min":0,"x_max":0,"o":"m 297 219 b 247 236 272 208 257 214 b 217 300 238 257 228 276 b 101 304 179 288 142 281 b 40 213 81 272 60 243 b -12 207 22 185 18 183 b 50 315 -1 249 25 282 b 65 369 63 332 67 347 b 103 524 51 436 65 482 b 44 608 85 551 64 579 b 140 551 79 619 94 606 b 199 557 168 549 175 560 b 296 581 233 553 267 550 b 399 669 326 614 364 640 b 456 665 415 683 433 686 b 383 603 431 644 406 624 b 314 538 360 582 338 560 b 254 324 365 447 311 386 b 297 219 268 290 283 256 m 282 493 b 204 424 254 468 229 447 b 229 375 213 407 221 393 b 282 493 265 410 283 446 m 122 329 b 194 347 157 321 175 328 b 174 388 188 358 182 371 b 122 329 156 368 142 351 m 229 519 b 181 469 194 519 171 497 b 229 519 190 479 219 508 m 110 390 b 156 449 113 399 153 440 b 131 469 149 457 139 472 b 110 390 110 461 93 408 "},"£":{"ha":582,"x_min":0,"x_max":0,"o":"m 249 510 b 369 510 290 510 331 510 b 415 507 385 510 401 510 b 458 469 436 504 454 497 b 239 469 383 469 311 469 b 156 304 211 413 183 361 b 193 304 167 304 179 304 b 272 300 219 303 247 306 b 314 182 332 285 344 250 b 471 231 368 199 421 215 b 517 207 501 239 501 239 b 490 192 510 203 501 196 b 329 140 438 174 383 156 b 281 146 314 136 294 140 b 267 219 246 160 243 183 b 286 250 275 229 281 240 b -42 153 203 288 51 243 b -60 224 -83 164 -86 174 b 157 463 18 244 126 364 b 72 507 129 474 76 449 b 176 507 108 507 142 507 b 225 632 196 553 208 593 b 289 758 244 675 264 718 b 404 863 315 804 356 840 b 525 858 449 882 489 881 b 561 782 551 842 563 815 b 474 613 557 718 518 663 b 429 619 458 596 450 599 b 465 676 440 638 456 657 b 508 775 482 708 497 742 b 492 836 515 799 515 825 b 425 822 472 849 447 833 b 333 726 385 800 356 765 b 249 510 296 657 271 586 "},"¢":{"ha":403,"x_min":0,"x_max":0,"o":"m 7 79 b 46 226 19 129 33 176 b 0 450 -26 281 -26 361 b 114 632 22 518 60 579 b 257 696 156 671 200 700 b 343 828 285 740 314 785 b 394 842 363 853 367 853 b 397 836 396 842 396 840 b 306 683 368 788 338 736 b 346 556 346 651 368 613 b 299 581 310 549 303 551 b 286 631 296 597 292 614 b 119 275 222 517 169 400 b 201 343 158 293 179 318 b 258 414 221 367 239 390 b 319 432 282 444 282 444 b 96 215 308 353 203 250 b 63 101 85 179 72 140 b 7 79 54 65 49 63 m 226 636 b 69 292 125 590 15 378 b 226 636 121 404 172 518 "},"€":{"ha":543,"x_min":0,"x_max":0,"o":"m 74 356 b -12 367 3 342 3 342 b 43 397 1 386 24 390 b 92 469 90 415 90 415 b 33 450 71 463 53 458 b -10 468 10 440 0 449 b 78 506 17 494 47 500 b 135 554 110 513 122 528 b 261 728 167 619 207 678 b 318 774 279 744 297 760 b 514 739 401 833 489 792 b 514 554 542 681 539 618 b 446 535 501 515 479 510 b 469 681 465 583 478 632 b 440 750 463 706 453 728 b 400 758 433 765 418 768 b 374 744 392 753 381 750 b 203 536 297 690 244 619 b 332 514 246 526 303 567 b 181 492 279 506 232 499 b 164 435 175 472 169 456 b 269 453 203 442 236 449 b 329 425 296 457 319 454 b 153 389 269 413 213 401 b 165 196 140 318 136 253 b 235 189 183 160 200 157 b 308 265 261 213 286 239 b 382 358 333 296 357 328 b 447 369 406 386 411 388 b 278 161 396 294 351 219 b 96 188 226 119 129 117 b 71 314 78 226 69 269 b 74 356 72 328 72 340 "},"×":{"ha":363,"x_min":0,"x_max":0,"o":"m 28 349 b 108 453 40 396 81 419 b 74 506 97 471 85 488 b 150 486 111 518 111 518 b 226 536 175 503 200 519 b 289 529 246 547 265 553 b 186 447 256 503 222 476 b 257 381 211 425 232 404 b 150 417 207 361 186 403 b 86 353 129 397 108 375 b 28 349 65 332 63 332 "},"÷":{"ha":447,"x_min":0,"x_max":0,"o":"m 69 446 b 299 451 146 449 221 450 b 339 425 315 451 342 449 b 293 410 335 397 311 410 b 129 411 239 410 183 411 b 69 415 101 410 85 408 b 69 446 33 428 33 443 m 197 483 b 176 504 193 486 179 493 b 210 532 171 518 190 532 b 242 511 224 531 239 528 b 197 483 243 497 225 483 m 168 358 b 192 335 181 358 193 354 b 154 311 192 321 172 307 b 126 331 143 314 131 322 b 168 358 121 343 144 360 "},"A":{"ha":828,"x_min":0,"x_max":0,"o":"m 282 561 b 167 258 233 461 199 360 b 176 253 169 257 174 254 b 206 285 186 264 197 272 b 699 958 354 521 521 743 b 861 1144 751 1021 807 1083 b 888 1172 869 1154 878 1164 b 949 1174 911 1192 925 1192 b 956 1121 967 1160 969 1150 b 808 754 900 1001 847 881 b 711 415 774 642 743 528 b 704 381 707 404 706 393 b 768 333 726 367 761 372 b 689 326 743 332 719 329 b 607 -161 653 165 611 6 b 540 -110 560 -171 538 -157 b 560 101 543 -39 550 32 b 597 300 569 167 583 232 b 576 301 589 301 582 303 b 256 219 469 274 363 246 b 213 189 235 215 222 206 b 114 19 179 132 144 78 b 96 -53 103 -1 101 -28 b 46 10 57 -54 38 -33 b 74 164 54 60 64 110 b 46 160 64 163 54 163 b -60 129 11 150 -25 139 b -119 160 -90 122 -97 125 b -82 176 -106 165 -94 172 b 60 222 -35 193 13 211 b 107 269 88 229 99 244 b 196 514 135 351 165 432 b 214 551 200 526 207 539 b 282 561 233 586 246 588 m 814 989 b 283 285 722 914 300 353 b 308 290 293 286 301 288 b 565 350 394 310 479 333 b 625 408 603 357 617 372 b 804 965 667 600 725 786 b 814 989 807 971 810 978 "},"B":{"ha":963,"x_min":0,"x_max":0,"o":"m 506 911 b 386 575 467 799 421 692 b 403 582 396 579 400 579 b 833 911 547 692 692 800 b 922 1003 867 936 893 971 b 942 1063 935 1017 947 1033 b 883 1072 924 1065 903 1071 b 635 1039 799 1078 717 1063 b 271 851 501 999 379 939 b 169 754 233 822 201 788 b 149 690 153 738 138 717 b 106 757 100 696 82 721 b 186 856 128 793 156 826 b 678 1104 326 983 493 1064 b 860 1121 738 1118 799 1125 b 969 1082 900 1118 939 1110 b 990 981 1004 1051 1014 1019 b 918 892 969 947 946 917 b 754 756 865 843 810 799 b 589 635 700 714 643 675 b 557 604 578 626 567 617 b 629 622 581 610 604 617 b 789 636 681 636 735 643 b 896 472 878 628 926 557 b 824 343 878 426 853 382 b 300 -18 690 165 513 46 b 108 -58 238 -37 174 -49 b -14 -22 64 -64 21 -54 b -31 14 -22 -14 -28 -3 b 44 -4 -6 7 18 -3 b 121 -1 69 -7 94 -4 b 201 17 147 3 172 10 b 194 135 178 57 186 97 b 422 861 249 383 317 628 b 444 907 429 876 436 892 b 506 911 464 940 469 940 m 244 32 b 279 40 260 36 269 38 b 761 376 471 108 632 221 b 838 494 792 413 814 454 b 851 547 846 510 849 529 b 824 588 854 568 847 585 b 739 592 796 589 767 594 b 394 467 615 576 500 533 b 364 444 383 460 375 446 b 336 415 342 443 340 431 b 254 107 308 313 281 210 b 244 32 249 83 249 60 "},"C":{"ha":856,"x_min":0,"x_max":0,"o":"m 376 636 b 413 629 393 633 406 635 b 476 621 433 611 456 614 b 796 876 614 668 724 747 b 822 1007 818 917 831 960 b 767 1056 817 1046 806 1054 b 653 1025 725 1058 689 1043 b 465 886 582 989 521 940 b 85 278 292 713 158 513 b 61 114 67 225 58 171 b 61 93 61 107 61 100 b 164 19 72 33 86 -3 b 288 63 207 31 249 43 b 826 418 469 153 667 293 b 869 419 843 432 856 432 b 868 375 885 406 885 393 b 783 306 851 360 803 319 b 440 68 669 226 557 144 b 221 -32 374 24 301 -14 b -10 128 100 -61 6 4 b 15 329 -17 197 -4 264 b 274 792 68 503 161 653 b 535 1035 350 885 435 968 b 693 1106 583 1068 635 1094 b 876 919 813 1129 901 1038 b 793 758 864 858 833 804 b 546 589 725 681 643 624 b 429 576 510 575 471 564 b 376 636 404 583 383 597 "},"D":{"ha":1063,"x_min":0,"x_max":0,"o":"m 444 347 b 590 386 497 361 544 374 b 653 342 626 394 639 386 b 419 269 581 306 500 299 b 407 122 415 222 411 172 b 350 178 367 126 356 138 b 350 211 349 189 350 201 b 350 243 350 222 350 232 b 188 38 218 242 -104 10 b 1054 744 556 69 875 444 b 1139 960 1093 811 1126 882 b 1144 1001 1142 974 1144 986 b 1068 1113 1146 1063 1124 1094 b 917 1124 1018 1128 967 1129 b 311 850 694 1090 490 1001 b 258 774 275 818 272 811 b 229 786 249 778 238 781 b 222 836 210 800 206 817 b 297 915 246 865 271 892 b 647 1114 403 1004 521 1067 b 899 1176 729 1144 813 1167 b 1058 1161 951 1182 1006 1179 b 1196 939 1157 1128 1207 1049 b 1139 751 1190 871 1167 811 b 915 415 1079 628 1001 518 b 288 -15 750 217 536 33 b 93 -11 222 -26 157 -32 b 21 36 67 -1 42 17 b 15 131 -8 63 -11 99 b 92 201 36 157 64 182 b 324 311 164 251 244 282 b 358 322 338 315 351 319 b 482 725 400 461 439 593 b 567 931 506 796 538 864 b 601 989 575 951 588 971 b 672 982 628 1028 651 1024 b 633 911 658 958 644 936 b 449 372 557 738 500 556 b 444 347 447 367 447 360 "},"E":{"ha":768,"x_min":0,"x_max":0,"o":"m 114 478 b 50 460 93 472 71 467 b -3 489 22 453 18 456 b 38 508 11 496 24 504 b 128 532 67 518 97 526 b 171 561 149 535 160 543 b 467 1028 258 724 357 881 b 478 1047 471 1032 472 1038 b 446 1042 464 1044 456 1043 b 165 932 347 1018 254 983 b 135 925 157 926 143 921 b 113 951 125 929 114 940 b 129 976 110 958 121 972 b 260 1046 172 1001 215 1026 b 628 1132 378 1094 501 1121 b 789 1144 681 1138 735 1143 b 938 1139 839 1146 888 1143 b 1003 1103 964 1138 988 1125 b 1011 1075 1007 1094 1013 1083 b 992 1050 1008 1065 1000 1054 b 967 1060 986 1047 974 1054 b 950 1088 960 1068 956 1079 b 738 1088 879 1088 808 1090 b 601 1072 692 1086 647 1078 b 563 1043 582 1071 567 1067 b 540 1007 560 1031 547 1019 b 285 600 447 875 361 740 b 261 556 276 586 271 572 b 297 556 276 556 288 556 b 493 560 363 557 428 560 b 538 549 508 560 524 554 b 561 511 551 542 567 533 b 231 499 451 531 342 514 b 57 79 164 363 92 229 b 50 3 51 57 53 33 b 121 24 79 11 101 15 b 608 260 283 103 446 182 b 628 275 615 264 625 268 b 657 293 633 289 643 297 b 696 271 671 289 686 281 b 692 242 700 265 697 249 b 654 214 682 231 668 221 b 178 -22 496 135 338 57 b 125 -39 161 -29 143 -35 b -18 76 39 -61 -25 -12 b 14 221 -14 125 -3 174 b 104 436 40 294 74 364 b 121 471 110 447 115 460 b 114 478 118 474 117 476 "},"F":{"ha":568,"x_min":0,"x_max":0,"o":"m 1396 1119 b 1221 1118 1335 1119 1278 1122 b 890 1089 1111 1111 1000 1100 b 628 1063 803 1081 715 1068 b 568 1024 597 1060 582 1046 b 308 532 472 874 375 697 b 250 382 289 485 271 438 b 433 408 317 392 376 397 b 488 385 460 413 475 407 b 435 361 474 365 454 364 b 233 332 369 350 303 342 b 147 1 208 257 149 82 b 151 -32 146 -10 149 -21 b 167 -62 154 -42 161 -51 b 89 0 124 -65 94 -43 b 92 93 86 31 88 63 b 153 319 99 133 142 274 b 92 304 129 314 110 313 b 29 333 54 289 50 289 b 57 350 39 339 47 347 b 114 364 75 357 96 364 b 192 429 163 363 178 389 b 443 953 254 606 344 794 b 503 1047 460 982 479 1010 b 290 1004 425 1032 357 1019 b 175 974 251 996 213 983 b 118 1004 142 965 138 968 b 143 1018 126 1008 133 1014 b 467 1100 247 1061 357 1083 b 1029 1163 654 1131 842 1149 b 1289 1178 1115 1168 1201 1174 b 1356 1169 1311 1178 1333 1174 b 1396 1119 1378 1164 1393 1150 "},"G":{"ha":899,"x_min":0,"x_max":0,"o":"m 665 390 b 547 356 626 378 589 367 b 467 339 522 350 493 343 b 403 371 442 335 418 346 b 422 386 410 378 415 386 b 561 421 469 399 517 410 b 746 464 622 435 683 451 b 861 478 782 471 822 476 b 931 425 889 478 918 464 b 854 429 903 426 878 429 b 779 418 831 426 804 421 b 772 392 776 407 778 396 b 638 175 708 335 671 256 b 596 33 621 128 606 81 b 592 -56 589 6 592 -25 b 533 -18 564 -65 539 -53 b 538 75 531 13 533 44 b 558 165 542 104 549 131 b 515 128 538 149 526 136 b 346 11 458 89 404 44 b 228 -25 311 -8 267 -21 b 11 151 119 -40 31 35 b 21 363 -1 222 4 293 b 168 715 50 490 101 607 b 419 1035 239 833 321 942 b 643 1172 486 1096 556 1150 b 769 1158 688 1185 728 1182 b 846 1026 821 1131 846 1086 b 783 804 846 944 822 872 b 761 785 779 796 769 786 b 731 829 739 782 724 806 b 775 957 746 871 763 914 b 781 1079 786 997 789 1038 b 719 1126 772 1118 758 1129 b 590 1079 674 1125 629 1103 b 381 882 510 1026 442 957 b 114 400 264 739 171 581 b 79 197 93 333 76 267 b 96 92 79 163 85 124 b 221 24 119 25 147 8 b 388 111 282 39 336 69 b 599 307 458 175 528 240 b 671 381 624 331 646 356 b 665 390 669 383 667 386 "},"H":{"ha":1032,"x_min":0,"x_max":0,"o":"m 207 -121 b 122 -71 157 -128 129 -112 b 124 10 118 -44 117 -17 b 188 318 144 113 167 215 b 194 346 190 328 193 336 b 50 258 143 343 63 296 b 29 258 43 258 36 257 b 15 321 -10 275 -15 299 b 147 394 57 350 99 376 b 240 500 201 414 226 446 b 447 1042 293 688 357 869 b 521 1158 469 1081 496 1119 b 593 1150 544 1189 561 1186 b 317 465 475 936 394 706 b 858 610 501 515 679 561 b 1065 1125 914 783 969 961 b 1108 1099 1082 1115 1097 1107 b 943 626 1053 940 999 785 b 1040 583 978 614 1021 628 b 951 574 1008 581 979 576 b 922 546 933 571 925 563 b 811 94 879 397 836 249 b 813 -6 801 46 803 32 b 739 47 772 -17 743 3 b 744 136 739 76 740 107 b 826 496 772 256 800 375 b 842 547 832 510 835 524 b 749 528 807 540 776 535 b 342 411 613 490 478 449 b 282 349 310 401 292 383 b 196 -14 256 228 225 107 b 207 -121 189 -49 179 -85 "},"I":{"ha":588,"x_min":0,"x_max":0,"o":"m 547 388 b 492 418 517 385 504 400 b 401 504 461 461 442 479 b 394 499 399 503 394 500 b 289 136 351 379 313 260 b 279 85 285 118 282 101 b 325 -75 275 28 260 -29 b 289 -81 306 -79 296 -82 b 208 -1 247 -71 214 -46 b 208 132 204 43 203 89 b 310 514 226 264 267 390 b 322 560 314 529 318 542 b 263 597 303 571 282 586 b 81 708 201 635 140 671 b 33 744 63 719 47 731 b 24 839 1 774 -4 807 b 103 914 46 867 72 894 b 342 1053 182 963 261 1011 b 594 1165 425 1093 510 1128 b 663 1165 617 1175 640 1181 b 681 1108 689 1149 696 1135 b 644 1042 671 1086 657 1064 b 426 590 557 899 486 746 b 410 543 421 575 415 561 b 547 388 461 499 526 464 m 594 1099 b 578 1099 583 1100 581 1100 b 163 885 433 1039 292 975 b 92 824 138 868 114 847 b 103 736 56 785 58 765 b 308 608 172 692 240 650 b 336 594 317 603 326 600 b 594 1099 403 774 490 938 "},"J":{"ha":840,"x_min":0,"x_max":0,"o":"m 614 471 b 314 399 501 469 407 438 b 82 167 206 353 126 276 b 63 72 69 138 63 104 b 151 -12 63 14 93 -11 b 324 46 215 -12 271 13 b 518 233 400 94 463 161 b 796 721 633 383 721 549 b 919 1097 849 843 890 968 b 922 1117 921 1103 921 1108 b 897 1117 914 1117 906 1118 b 388 1003 728 1079 557 1044 b 228 943 332 990 281 965 b 158 896 203 932 179 915 b 150 815 126 869 125 849 b 189 767 161 799 175 783 b 147 771 169 753 157 763 b 86 840 125 793 103 815 b 97 940 61 879 64 910 b 196 1006 126 967 161 988 b 450 1090 276 1046 363 1071 b 892 1176 597 1121 744 1147 b 942 1185 908 1179 925 1183 b 979 1140 971 1188 983 1169 b 968 1032 975 1104 975 1068 b 807 557 939 865 876 710 b 583 181 746 424 675 296 b 410 13 533 117 476 58 b 214 -64 350 -29 286 -57 b 47 -12 150 -68 94 -51 b -1 108 8 18 -7 61 b 25 207 3 142 11 176 b 251 433 71 311 146 388 b 494 507 329 468 410 493 b 558 510 515 511 538 511 b 614 471 581 508 599 499 "},"K":{"ha":1038,"x_min":0,"x_max":0,"o":"m 332 403 b 749 26 439 240 575 111 b 813 4 769 17 792 10 b 964 22 865 -10 917 -11 b 1001 35 975 29 989 31 b 1008 25 1003 32 1006 28 b 978 -6 997 14 989 3 b 747 -39 907 -58 829 -65 b 518 90 663 -11 589 36 b 322 285 444 147 378 210 b 304 307 318 292 313 297 b 292 278 299 294 294 286 b 242 36 275 197 256 117 b 274 -85 233 -7 224 -54 b 178 -46 231 -104 188 -87 b 174 76 169 -7 168 36 b 217 297 183 150 201 224 b 221 332 218 307 219 317 b 133 279 189 313 161 296 b 58 239 108 265 85 251 b -15 265 22 222 10 226 b -4 276 -11 268 -8 274 b 229 426 74 326 150 378 b 269 482 251 440 263 458 b 526 1089 332 694 417 897 b 579 1172 543 1117 560 1144 b 624 1188 594 1194 606 1197 b 629 1140 642 1176 643 1167 b 386 582 536 960 454 774 b 368 528 381 567 376 550 b 388 535 379 532 383 533 b 906 931 567 658 744 783 b 1008 1033 942 963 975 999 b 1049 1039 1021 1046 1032 1051 b 1058 996 1065 1026 1071 1013 b 997 919 1040 969 1019 943 b 646 622 890 808 771 713 b 332 403 544 549 439 478 "},"L":{"ha":699,"x_min":0,"x_max":0,"o":"m 726 383 b 217 28 576 251 393 121 b 96 -8 179 8 139 -8 b -43 101 26 -8 -26 35 b -37 267 -56 157 -49 213 b 69 571 -17 374 24 474 b 428 1160 168 781 292 974 b 447 1183 433 1168 440 1175 b 494 1147 469 1181 485 1171 b 453 1079 482 1125 468 1103 b 167 586 349 921 250 758 b 31 225 111 469 58 351 b 25 81 21 178 13 129 b 94 38 36 36 50 25 b 204 82 132 49 169 64 b 690 419 372 171 547 296 b 726 383 733 457 767 424 "},"M":{"ha":1176,"x_min":0,"x_max":0,"o":"m 607 551 b 694 421 564 343 618 308 b 1301 1132 858 667 1147 1061 b 1349 1058 1386 1172 1388 1121 b 1033 465 1240 892 1097 753 b 1269 89 994 288 1006 64 b 1314 97 1285 90 1299 93 b 1314 72 1315 89 1315 81 b 1176 3 1300 7 1236 -6 b 969 414 986 26 939 242 b 1201 943 1001 592 1101 789 b 1274 1057 1207 953 1288 1064 b 746 431 1139 994 878 626 b 693 347 728 403 710 375 b 553 349 657 286 588 285 b 597 763 481 479 553 632 b 611 832 601 775 613 814 b 100 115 426 624 254 368 b 71 68 90 100 81 85 b 22 54 58 50 43 46 b -4 96 3 63 -8 74 b 11 167 0 119 4 143 b 211 664 65 338 136 501 b 365 978 261 769 314 874 b 418 988 379 1006 403 1010 b 421 953 424 979 425 963 b 376 846 407 917 392 882 b 156 339 303 676 229 508 b 118 225 153 329 115 239 b 560 839 239 406 401 667 b 629 908 582 863 606 885 b 689 913 647 925 668 925 b 710 864 710 900 717 889 b 683 786 703 838 693 813 b 607 551 657 707 625 631 "},"N":{"ha":731,"x_min":0,"x_max":0,"o":"m 265 833 b 250 789 260 818 254 804 b 75 83 175 558 118 324 b 57 0 69 56 64 28 b 47 -22 56 -7 53 -18 b 11 -24 36 -26 21 -28 b 4 4 6 -22 4 -4 b 72 374 26 128 47 251 b 242 975 115 578 179 776 b 275 1017 249 993 251 1011 b 333 969 310 1026 331 1008 b 351 697 340 879 344 789 b 467 119 368 500 410 308 b 472 115 468 118 469 118 b 479 131 475 121 478 126 b 694 825 525 371 607 599 b 822 1154 736 936 779 1044 b 844 1201 829 1169 836 1186 b 913 1215 861 1231 876 1233 b 901 1183 910 1206 906 1193 b 647 501 817 957 729 729 b 529 22 590 347 551 186 b 521 -15 526 11 525 -1 b 478 -50 515 -42 506 -50 b 436 -17 453 -51 444 -47 b 288 621 371 192 314 401 b 272 813 281 685 278 749 b 271 832 272 818 271 825 b 265 833 269 832 267 832 "},"O":{"ha":828,"x_min":0,"x_max":0,"o":"m 81 342 b 74 235 64 307 51 272 b 7 257 44 222 21 229 b 3 340 -7 283 -6 313 b 38 444 13 375 22 411 b 353 985 121 638 226 817 b 497 1128 394 1039 440 1089 b 608 1178 532 1151 568 1169 b 807 1071 694 1196 776 1153 b 828 932 824 1026 828 979 b 767 564 828 806 801 685 b 629 221 733 444 692 328 b 475 29 586 150 538 83 b 367 -44 442 0 406 -26 b 128 36 276 -85 178 -50 b 81 238 92 99 82 167 b 81 342 81 272 81 307 m 243 638 b 161 167 186 485 146 331 b 217 13 167 111 181 58 b 301 -11 243 -19 264 -29 b 407 53 339 6 375 26 b 618 349 501 133 568 236 b 754 843 688 507 735 672 b 746 1060 763 915 765 989 b 621 1119 725 1136 694 1150 b 471 1001 561 1093 511 1053 b 299 769 411 926 356 847 b 288 743 293 761 288 751 b 243 638 271 706 308 625 "},"P":{"ha":824,"x_min":0,"x_max":0,"o":"m 122 247 b 63 272 103 256 82 261 b 63 344 32 293 32 313 b 113 311 76 336 93 325 b 149 349 133 310 143 324 b 288 804 186 501 226 657 b 381 1011 315 874 349 940 b 361 1004 375 1008 368 1007 b 79 814 260 953 165 890 b 46 776 67 803 56 789 b 3 771 33 760 22 758 b -6 808 -14 782 -18 792 b 42 858 8 828 24 844 b 692 1171 226 1026 442 1135 b 874 1164 753 1179 814 1182 b 901 1153 882 1160 892 1157 b 994 947 994 1114 1029 1042 b 918 804 975 896 950 849 b 500 419 806 649 663 524 b 207 271 410 361 315 313 b 181 57 199 200 188 129 b 217 -40 176 19 181 -17 b 219 -47 219 -40 218 -44 b 122 0 181 -61 139 -42 b 110 65 114 21 110 43 b 122 247 111 126 118 188 m 461 1050 b 468 1006 479 1035 478 1022 b 443 963 457 993 450 976 b 278 519 372 819 322 671 b 233 365 261 469 249 417 b 242 363 239 364 240 364 b 254 367 246 364 250 365 b 857 857 490 485 694 646 b 926 983 886 896 907 940 b 939 1053 938 1004 939 1029 b 896 1114 940 1083 925 1106 b 838 1124 876 1118 857 1124 b 461 1050 708 1135 588 1100 "},"Q":{"ha":810,"x_min":0,"x_max":0,"o":"m 282 4 b 190 15 251 7 219 7 b 58 136 126 32 83 75 b 35 363 28 210 29 286 b 29 403 36 376 36 392 b 14 476 15 426 10 450 b 38 583 19 513 25 549 b 329 1069 103 765 199 928 b 492 1190 376 1119 428 1164 b 743 1072 603 1233 707 1185 b 758 993 750 1046 756 1019 b 740 722 767 901 757 811 b 632 360 718 597 685 475 b 403 68 578 244 506 144 b 390 54 400 65 397 61 b 508 82 433 64 471 75 b 672 101 563 90 618 97 b 767 79 706 104 738 97 b 794 31 785 69 799 57 b 775 31 788 31 778 28 b 642 51 735 68 686 57 b 251 -96 500 32 368 -12 b 193 -101 232 -110 214 -117 b 190 -60 175 -87 172 -75 b 246 -19 207 -46 226 -33 b 282 4 258 -11 271 -3 m 103 356 b 97 269 101 332 97 300 b 142 90 99 207 106 144 b 249 50 169 49 199 38 b 443 182 329 71 389 122 b 640 550 540 288 600 414 b 704 976 683 689 710 831 b 676 1114 703 1024 697 1071 b 582 1158 656 1156 629 1168 b 463 1096 536 1149 499 1125 b 260 850 381 1026 318 940 b 242 817 254 840 249 829 b 290 765 272 810 293 797 b 288 735 290 757 289 747 b 247 749 272 740 261 744 b 126 447 186 657 147 556 b 218 508 160 465 189 488 b 349 604 261 540 304 574 b 414 586 378 625 392 619 b 200 411 343 526 272 467 b 103 356 174 390 142 376 "},"R":{"ha":1079,"x_min":0,"x_max":0,"o":"m 378 340 b 864 58 532 224 688 122 b 1026 44 917 40 971 26 b 1044 43 1031 46 1038 44 b 996 -10 1042 11 1021 -1 b 865 -10 953 -24 910 -19 b 597 106 769 14 682 58 b 335 288 504 158 414 215 b 315 300 331 292 325 293 b 271 121 300 238 283 179 b 250 3 261 82 254 43 b 251 -89 247 -26 250 -57 b 185 -43 215 -97 188 -83 b 188 67 181 -7 183 31 b 217 226 194 119 207 171 b 151 257 188 218 165 226 b 222 321 167 286 196 303 b 260 375 242 335 253 351 b 443 901 308 554 364 732 b 446 917 444 904 444 908 b 419 903 435 911 426 907 b 78 601 292 818 175 721 b 39 540 65 585 56 565 b -14 568 22 533 3 540 b 39 646 3 593 19 621 b 329 915 122 751 221 838 b 483 1014 379 950 431 982 b 531 1060 503 1026 518 1040 b 593 1142 550 1089 569 1117 b 656 1131 617 1169 631 1165 b 624 1092 647 1121 639 1110 b 657 1101 640 1097 649 1099 b 914 1175 740 1135 825 1163 b 1092 1171 974 1183 1032 1186 b 1135 1154 1107 1168 1121 1161 b 1188 982 1207 1114 1225 1056 b 1072 842 1160 928 1119 881 b 821 643 990 774 908 706 b 419 369 689 550 554 461 b 378 340 407 361 394 353 m 351 426 b 360 419 354 424 357 421 b 471 496 397 444 435 469 b 936 825 626 604 785 711 b 1096 979 996 868 1046 925 b 1142 1068 1117 1003 1131 1036 b 1110 1122 1153 1097 1140 1113 b 954 1125 1058 1136 1006 1132 b 596 1006 828 1107 711 1061 b 550 958 575 996 561 981 b 404 592 493 840 446 717 b 351 426 386 536 369 482 "},"S":{"ha":899,"x_min":0,"x_max":0,"o":"m 518 275 b 475 250 503 267 489 257 b 225 53 379 200 297 132 b 178 -11 207 33 193 11 b 183 -19 179 -14 181 -17 b 226 -12 197 -18 213 -17 b 621 253 382 40 515 125 b 681 374 650 288 674 326 b 632 467 688 421 675 446 b 472 504 582 489 526 500 b 258 514 401 508 329 510 b 122 522 214 515 168 518 b 71 538 106 524 86 529 b 10 686 7 568 -14 619 b 40 747 18 707 28 728 b 574 1174 172 946 347 1092 b 753 1203 631 1194 690 1206 b 893 1139 807 1200 856 1182 b 911 1021 925 1104 933 1063 b 713 850 867 939 799 883 b 640 882 676 836 654 850 b 860 1051 743 900 808 967 b 868 1081 864 1060 867 1071 b 824 1144 872 1118 861 1135 b 681 1140 775 1158 728 1150 b 404 1011 579 1118 488 1071 b 119 726 293 932 197 838 b 71 636 100 699 85 667 b 63 583 65 622 65 604 b 146 572 93 579 119 574 b 410 563 235 568 322 568 b 610 521 479 560 546 547 b 704 458 646 507 678 486 b 742 321 743 419 754 374 b 653 172 726 263 693 215 b 263 -69 544 57 415 -25 b 156 -62 226 -81 190 -83 b 133 44 110 -33 101 0 b 200 121 153 72 176 97 b 454 299 275 193 358 256 b 518 275 488 314 492 313 "},"T":{"ha":632,"x_min":0,"x_max":0,"o":"m 361 -92 b 299 -47 310 -99 301 -96 b 304 71 296 -8 297 32 b 561 1064 364 440 428 714 b 594 1151 571 1092 582 1119 b 533 1151 571 1151 551 1153 b 193 1118 419 1140 307 1131 b 39 1090 142 1113 90 1101 b -4 1068 25 1088 13 1078 b -40 1125 -24 1078 -35 1097 b -12 1135 -31 1128 -22 1133 b 369 1194 114 1167 240 1188 b 856 1214 532 1203 693 1213 b 1260 1201 990 1215 1125 1208 b 1372 1178 1297 1199 1335 1188 b 1413 1128 1394 1172 1413 1158 b 1392 1129 1404 1128 1397 1126 b 1143 1160 1311 1156 1226 1158 b 686 1154 990 1161 839 1157 b 664 1153 679 1154 672 1154 b 649 1118 658 1142 654 1129 b 413 281 542 815 478 596 b 367 13 394 192 381 103 b 361 -92 361 -21 363 -54 "},"U":{"ha":840,"x_min":0,"x_max":0,"o":"m 810 860 b 646 658 754 793 700 725 b 318 265 536 528 429 394 b 186 146 281 221 232 183 b 101 124 163 126 133 118 b 13 203 56 131 25 157 b 7 372 -1 260 0 317 b 143 818 29 529 75 678 b 201 913 160 851 179 883 b 278 904 225 943 249 940 b 193 771 232 872 214 819 b 76 364 136 640 97 504 b 74 228 69 318 71 272 b 90 164 74 206 85 185 b 151 189 119 160 136 175 b 251 282 186 218 222 247 b 579 685 361 415 469 550 b 974 1165 711 844 843 1006 b 1036 1168 994 1192 997 1192 b 1015 1081 1040 1138 1029 1110 b 814 649 947 938 876 796 b 608 58 732 457 660 261 b 597 -71 597 17 586 -26 b 526 -43 560 -90 531 -79 b 531 50 524 -12 525 19 b 658 472 557 196 607 335 b 804 828 704 592 756 710 b 815 854 807 836 811 846 b 810 860 813 856 811 858 "},"V":{"ha":539,"x_min":0,"x_max":0,"o":"m 115 33 b 172 128 135 65 156 96 b 496 674 274 314 376 499 b 867 1200 618 850 743 1025 b 913 1215 879 1218 892 1226 b 929 1176 933 1206 939 1197 b 896 1122 919 1157 908 1139 b 633 743 808 996 721 869 b 228 97 490 533 349 322 b 185 29 215 74 200 51 b 99 -14 164 -1 139 -21 b 31 54 58 -7 39 19 b 4 222 18 110 7 165 b 58 682 -4 378 25 531 b 119 917 75 761 99 838 b 133 947 122 926 126 939 b 163 956 140 953 154 958 b 182 933 171 953 181 942 b 176 900 185 924 179 911 b 82 372 135 726 100 550 b 88 100 74 282 71 190 b 103 35 90 78 97 57 b 115 33 107 35 111 35 "},"W":{"ha":1157,"x_min":0,"x_max":0,"o":"m 469 571 b 422 483 453 540 436 513 b 210 106 351 357 281 232 b 149 15 193 74 171 46 b 15 50 115 -29 26 -26 b 4 219 8 106 3 164 b 108 785 15 413 56 601 b 193 1032 132 871 163 950 b 219 1085 199 1050 208 1067 b 274 1090 233 1106 256 1108 b 279 1053 289 1082 290 1068 b 253 1003 269 1036 258 1021 b 101 375 181 801 133 590 b 82 110 88 289 75 200 b 86 53 83 92 86 72 b 97 51 89 53 93 51 b 140 117 111 72 126 92 b 307 406 197 213 251 308 b 472 706 363 506 418 606 b 499 782 485 729 493 757 b 533 819 508 814 514 822 b 568 764 556 815 575 788 b 551 568 549 700 553 635 b 589 156 547 428 547 289 b 642 46 601 115 618 79 b 725 33 665 8 692 4 b 818 139 760 64 794 100 b 965 404 871 225 922 313 b 1240 1063 1069 617 1158 839 b 1260 1124 1247 1082 1254 1101 b 1269 1182 1265 1142 1267 1161 b 1325 1136 1313 1197 1332 1182 b 1308 1068 1322 1114 1315 1089 b 958 251 1211 786 1100 511 b 839 67 924 186 881 126 b 767 3 818 42 793 18 b 567 43 699 -46 611 -25 b 499 217 531 97 513 156 b 478 486 479 306 475 396 b 478 568 478 514 478 540 b 469 571 475 569 472 569 "},"X":{"ha":640,"x_min":0,"x_max":0,"o":"m 554 -22 b 492 -35 533 -46 511 -49 b 410 28 463 -17 433 1 b 276 258 346 90 311 174 b 246 335 267 283 257 306 b 218 296 235 319 225 308 b 54 18 156 210 96 121 b 15 -7 46 1 35 -11 b -10 33 -10 -3 -18 10 b 19 103 -1 58 8 81 b 196 386 68 204 128 299 b 210 468 215 413 219 433 b 143 1047 153 656 129 849 b 150 1118 144 1072 147 1094 b 175 1142 151 1135 161 1143 b 211 1117 192 1142 208 1139 b 213 1065 213 1100 213 1082 b 243 674 214 935 218 803 b 279 506 253 619 267 565 b 299 521 289 513 294 517 b 803 1029 451 710 625 872 b 954 1157 853 1072 903 1117 b 1028 1143 985 1183 994 1181 b 988 1106 1015 1132 1001 1118 b 419 550 792 931 599 749 b 324 438 388 513 357 475 b 314 388 313 424 307 410 b 421 124 343 296 375 207 b 535 -4 451 72 486 26 b 554 -22 542 -8 547 -17 "},"Y":{"ha":668,"x_min":0,"x_max":0,"o":"m 607 924 b 588 900 601 915 594 908 b 283 496 486 767 385 629 b 179 376 251 454 215 415 b 110 344 161 357 138 344 b 18 406 61 344 36 364 b 0 560 0 454 -4 507 b 111 953 11 697 46 828 b 157 1018 122 976 142 997 b 199 1033 167 1033 182 1039 b 228 1019 210 1029 218 1022 b 213 993 224 1010 218 1001 b 189 960 206 982 196 972 b 71 464 108 804 65 640 b 97 382 74 438 79 410 b 139 413 114 392 129 400 b 238 532 172 451 208 489 b 744 1194 399 758 572 978 b 806 1208 769 1224 771 1225 b 783 1118 813 1175 797 1147 b 394 58 622 775 494 421 b 364 -107 381 4 371 -53 b 336 -135 360 -124 356 -135 b 297 -106 311 -133 296 -125 b 304 -12 297 -74 299 -42 b 389 306 331 93 358 200 b 603 893 450 504 521 700 b 613 922 606 901 608 911 b 607 924 610 922 608 924 "},"Z":{"ha":990,"x_min":0,"x_max":0,"o":"m 236 746 b 219 803 204 764 200 774 b 350 938 254 857 300 900 b 925 1172 519 1069 711 1149 b 1031 1167 960 1176 997 1174 b 1083 1028 1103 1150 1129 1086 b 972 911 1050 985 1013 946 b 722 711 890 842 806 778 b 682 679 711 701 699 692 b 769 664 715 674 743 669 b 868 607 807 654 840 636 b 904 447 914 561 924 507 b 819 306 888 393 857 346 b 265 -65 664 138 481 13 b 94 -86 210 -85 153 -97 b 54 -72 81 -83 67 -79 b 21 68 -7 -40 -22 14 b 119 161 49 104 83 135 b 385 297 200 221 293 258 b 725 418 496 343 607 389 b 810 404 771 429 771 428 b 863 526 839 440 858 481 b 815 604 865 567 853 588 b 631 619 756 631 693 626 b 597 613 619 618 608 615 b 535 653 560 604 551 610 b 568 676 546 660 557 668 b 950 976 699 771 831 867 b 1033 1061 979 1003 1007 1032 b 1061 1110 1044 1075 1051 1093 b 940 1122 1019 1132 979 1128 b 346 858 717 1093 517 1007 b 236 746 308 825 275 786 m 790 372 b 783 379 788 375 785 376 b 738 368 768 376 753 374 b 407 243 628 326 517 288 b 143 100 314 206 222 163 b 63 18 113 76 85 49 b 93 -37 35 -21 46 -36 b 267 3 154 -39 211 -21 b 701 282 428 69 572 165 b 790 372 733 310 761 342 "},"a":{"ha":464,"x_min":0,"x_max":0,"o":"m 358 568 b 225 306 301 483 236 411 b 296 325 254 304 275 314 b 460 422 344 354 411 393 b 500 407 481 435 481 431 b 479 388 493 400 486 393 b 329 290 429 354 379 321 b 265 268 310 279 288 271 b 171 369 199 261 160 304 b 176 393 172 375 174 381 b 106 336 149 371 128 353 b 43 293 85 321 64 307 b -31 296 18 278 -7 282 b -50 347 -49 308 -58 325 b -29 393 -44 363 -39 379 b 133 571 14 464 68 524 b 186 601 150 583 168 592 b 358 568 250 633 303 604 m 24 346 b 285 572 121 414 201 490 b 24 346 203 575 68 457 "},"b":{"ha":482,"x_min":0,"x_max":0,"o":"m 115 539 b 214 608 150 563 181 588 b 299 635 239 625 267 636 b 397 513 368 635 411 582 b 375 444 392 492 383 471 b 458 443 404 444 431 446 b 506 407 485 442 514 438 b 294 360 425 400 354 417 b 89 293 239 304 165 293 b 31 297 71 293 53 296 b 18 269 26 289 22 279 b -43 101 -3 213 -21 157 b -90 71 -54 71 -62 67 b -125 117 -121 75 -132 86 b -93 218 -117 150 -104 183 b -79 253 -89 229 -83 242 b -60 382 -61 293 -42 332 b -17 428 -28 382 -24 406 b 243 996 54 624 136 815 b 296 1072 260 1022 276 1049 b 364 1065 322 1107 342 1103 b 324 1006 350 1044 336 1026 b 114 549 238 861 174 706 b 115 539 114 547 115 544 m 100 411 b 238 428 146 417 192 426 b 311 474 274 429 296 444 b 336 528 319 492 329 510 b 335 588 343 547 353 572 b 272 581 315 606 292 592 b 100 411 200 542 146 483 m 44 336 b 224 383 110 331 167 343 b 44 336 140 383 67 365 "},"c":{"ha":381,"x_min":0,"x_max":0,"o":"m 206 501 b 239 565 218 524 228 544 b 242 586 242 571 240 578 b 43 319 143 557 39 422 b 140 290 46 260 106 282 b 360 417 228 321 289 358 b 400 431 385 435 371 444 b 404 401 413 422 415 411 b 138 250 321 329 246 283 b 36 258 103 239 68 243 b -17 331 4 274 -14 297 b 115 586 -22 433 36 526 b 197 625 139 606 167 619 b 279 599 229 629 256 619 b 290 551 293 586 300 569 b 258 500 281 533 271 515 b 206 501 242 481 231 482 "},"d":{"ha":413,"x_min":0,"x_max":0,"o":"m 186 8 b 124 56 144 3 124 14 b 135 165 122 92 125 129 b 211 431 157 254 185 342 b 217 469 214 443 218 454 b 182 425 206 456 194 440 b 50 269 139 374 94 321 b -18 249 33 249 11 238 b -51 296 -44 260 -53 268 b -46 338 -51 310 -50 325 b 65 528 -24 410 13 474 b 108 563 78 540 93 553 b 221 572 143 586 182 590 b 256 557 231 567 242 563 b 275 600 263 572 268 586 b 507 994 333 742 408 876 b 599 1083 535 1026 567 1056 b 643 1110 611 1094 626 1103 b 726 1047 689 1128 731 1096 b 711 986 725 1026 719 1006 b 515 694 668 874 601 778 b 350 553 464 644 406 600 b 321 518 339 543 326 532 b 193 117 269 388 221 256 b 186 8 186 83 188 47 m 383 664 b 392 656 386 661 389 658 b 499 760 428 690 464 724 b 663 1006 568 832 624 913 b 678 1060 669 1024 672 1042 b 667 1065 674 1061 671 1063 b 383 664 529 963 460 810 m 207 542 b 24 315 128 525 39 415 b 207 542 86 393 144 464 "},"e":{"ha":313,"x_min":0,"x_max":0,"o":"m 322 392 b 39 265 275 349 142 224 b -12 376 3 281 -21 317 b -32 444 -10 400 -15 419 b 39 501 14 442 21 476 b 121 581 61 533 86 561 b 204 578 150 597 176 596 b 228 508 231 560 239 538 b 101 392 206 447 160 413 b 57 379 88 386 74 383 b 68 307 40 336 50 318 b 301 422 124 274 257 378 b 322 392 331 451 354 417 m 76 425 b 181 501 121 436 164 472 b 147 524 204 544 175 547 b 76 425 115 497 89 456 "},"f":{"ha":299,"x_min":0,"x_max":0,"o":"m -12 436 b 19 478 6 438 11 458 b 282 878 89 622 169 761 b 364 951 307 904 336 928 b 404 975 376 963 390 969 b 464 964 426 985 446 981 b 478 910 481 949 485 929 b 439 829 467 882 454 854 b 101 431 346 681 231 550 b 67 400 92 422 82 414 b 251 429 133 411 193 419 b 293 435 265 431 279 433 b 328 403 314 436 326 435 b 106 358 258 389 182 381 b 126 307 113 340 121 324 b 131 185 139 267 138 226 b 69 0 118 119 101 57 b 24 -61 57 -22 40 -43 b -62 -78 0 -86 -31 -90 b -110 -12 -93 -67 -106 -43 b -97 143 -117 40 -111 93 b -35 347 -79 213 -56 279 b -12 436 -26 375 -21 403 m -43 -39 b -21 -19 -31 -29 -25 -25 b 72 296 49 74 78 179 b 44 350 71 314 69 335 b -43 -39 1 225 -51 106 m 413 907 b 140 544 324 853 174 653 b 413 907 249 657 343 772 "},"g":{"ha":578,"x_min":0,"x_max":0,"o":"m 449 432 l 422 354 b 586 429 478 378 547 401 b 585 375 610 415 614 397 b 400 296 535 340 457 319 l 392 279 b 297 88 363 214 332 150 b 161 -75 263 25 217 -29 b 25 -142 121 -107 78 -132 b -144 -93 -40 -153 -96 -133 b -167 11 -178 -64 -187 -28 b -103 94 -150 42 -129 72 b 46 201 -57 135 -7 172 b 324 339 136 251 231 294 b 371 390 347 350 364 364 b 406 517 383 431 399 472 l 368 492 b 188 371 308 451 249 408 b 85 319 156 350 119 335 b -3 335 54 307 24 311 b -21 404 -22 354 -32 376 b -8 436 -17 415 -14 426 b 211 622 43 524 114 588 b 368 561 279 646 329 626 b 392 576 378 567 385 571 b 450 581 410 589 429 596 b 472 518 472 565 481 544 m 315 275 b 53 140 221 233 133 193 b -60 56 13 115 -25 86 b -111 -11 -81 38 -99 14 b -64 -97 -136 -58 -117 -92 b 46 -74 -25 -103 14 -96 b 156 14 85 -47 122 -19 b 313 256 224 83 271 168 b 315 275 314 260 314 264 m 107 485 b 38 363 54 432 33 394 b 324 533 100 375 256 468 b 107 485 301 650 154 532 "},"h":{"ha":400,"x_min":0,"x_max":0,"o":"m 432 415 b 403 393 421 407 411 400 b 214 268 349 353 278 281 b 144 358 160 256 135 306 b 168 458 150 392 161 424 b -10 254 101 396 29 340 b -83 257 -28 214 -46 215 b 31 519 -46 342 -10 428 b -18 503 10 513 -4 507 b -69 526 -46 494 -47 494 b -46 542 -61 532 -54 536 b 4 567 -29 550 -12 558 b 117 678 54 592 89 628 b 313 944 171 775 235 865 b 396 1018 339 971 367 994 b 438 1039 407 1028 422 1035 b 504 979 478 1051 514 1019 b 467 899 497 950 483 922 b 294 715 419 829 358 769 b 178 622 257 683 218 651 b 124 558 156 604 136 585 b 86 463 110 528 94 497 b 171 531 114 485 142 508 b 221 540 185 543 201 551 b 244 489 243 529 251 514 b 210 379 233 451 224 414 b 383 421 154 242 335 379 b 432 415 404 439 414 450 m 232 739 b 451 992 322 788 447 932 b 232 739 357 924 292 833 "},"i":{"ha":199,"x_min":0,"x_max":0,"o":"m 93 351 b 185 425 142 390 139 386 b 222 418 203 440 206 443 b 63 278 153 351 135 340 b -28 329 10 231 -32 281 b 28 511 -22 394 -3 454 b 44 536 32 519 39 528 b 119 529 72 567 92 564 b 35 372 72 485 50 429 b 93 351 4 271 38 310 m 189 685 b 132 592 169 653 151 625 b 129 683 71 599 113 654 b 189 685 149 714 157 714 "},"j":{"ha":171,"x_min":0,"x_max":0,"o":"m -150 -35 b -267 -62 -181 -69 -221 -79 b -415 49 -326 -39 -372 3 b -415 111 -432 68 -436 94 b -68 304 -307 201 -164 219 b -18 379 -43 322 -29 340 b 14 522 -3 433 4 479 b 42 546 18 550 21 551 b 69 514 64 538 74 539 b 28 339 61 464 46 403 b 157 419 69 363 113 389 b 185 422 174 431 176 428 b 171 386 194 415 189 404 b 10 283 125 343 65 310 b -150 -35 -31 157 -89 29 m -81 233 b -358 89 -176 175 -292 140 b -357 44 -375 76 -374 58 b -278 -21 -331 22 -304 0 b -228 -21 -261 -35 -244 -33 b -200 6 -217 -14 -207 -6 b -81 233 -146 72 -111 151 m 53 604 b 39 658 32 614 32 636 b 50 690 42 669 46 679 b 85 703 57 708 71 707 b 83 619 97 697 90 635 b 53 604 74 596 86 588 "},"k":{"ha":422,"x_min":0,"x_max":0,"o":"m 251 574 b 288 515 269 586 318 547 b 144 410 256 482 197 440 b 239 288 158 356 172 247 b 411 418 301 322 358 375 b 451 408 428 433 435 428 b 440 393 449 403 446 396 b 276 267 386 350 333 304 b 94 328 196 214 125 242 b 82 372 89 342 88 356 b 13 307 49 361 24 346 b -24 132 -1 249 -21 193 b -72 183 -65 140 -75 149 b -57 268 -71 213 -65 240 b 3 464 -37 333 -15 399 b 14 496 8 475 11 485 b -31 532 -3 506 -28 501 b -8 538 -24 533 -17 535 b 58 597 22 544 44 565 b 253 942 106 721 169 836 b 346 1038 279 976 311 1010 b 424 997 379 1064 422 1040 b 414 951 424 982 419 965 b 378 874 404 925 393 899 b 147 589 317 765 242 669 b 81 492 115 563 93 531 b 58 433 74 472 65 453 b 251 574 144 479 218 551 m 326 938 b 150 649 254 854 192 739 b 364 913 231 721 321 838 b 326 938 417 1007 369 990 "},"l":{"ha":292,"x_min":0,"x_max":0,"o":"m 96 249 b 283 428 183 318 213 344 b 311 390 317 467 344 422 b 150 228 240 322 221 297 b 67 165 128 203 96 182 b -47 221 11 136 -42 161 b -36 344 -53 263 -44 304 b 6 501 -26 396 -7 447 b -28 513 -4 506 -18 507 b -50 543 -36 518 -40 529 b -17 549 -33 546 -25 546 b 54 613 15 560 40 579 b 242 935 103 726 163 836 b 342 1035 271 971 307 1003 b 378 1057 351 1044 367 1050 b 460 1001 421 1082 468 1036 b 433 926 454 976 446 949 b 279 731 392 853 339 789 b 126 588 231 682 178 635 b 99 554 117 578 104 567 b 7 246 57 454 19 353 b 96 249 -1 164 56 217 m 415 1014 b 171 693 333 972 197 792 b 415 1014 268 789 360 881 "},"m":{"ha":635,"x_min":0,"x_max":0,"o":"m 496 322 b 618 417 551 365 561 374 b 675 408 643 436 663 444 b 535 289 621 368 582 331 b 479 258 519 276 499 265 b 393 318 438 244 393 274 b 407 397 393 344 399 372 b 456 525 421 440 439 482 b 431 529 479 578 463 561 b 315 388 393 482 354 433 b 258 336 299 368 278 351 b 190 328 238 319 215 314 b 154 390 165 340 154 363 b 161 440 156 407 158 424 b 163 468 161 447 161 454 b -7 264 94 408 47 332 b -56 247 -26 240 -35 238 b -76 289 -75 256 -82 269 b -67 317 -74 299 -71 308 b 64 581 -24 404 19 493 b 85 613 69 592 76 603 b 143 608 107 639 117 639 b 61 451 115 556 88 503 b 164 543 99 485 133 513 b 213 547 179 556 194 556 b 232 504 229 538 236 522 b 218 433 228 481 222 457 b 207 369 214 413 210 390 b 479 656 285 403 418 588 b 508 679 488 665 497 675 b 547 676 521 683 538 682 b 565 642 557 669 567 653 b 550 589 564 624 557 607 b 465 385 522 521 493 453 b 496 322 446 338 428 275 "},"n":{"ha":511,"x_min":0,"x_max":0,"o":"m 304 294 b 511 433 375 322 456 392 b 517 381 547 422 544 400 b 383 278 482 356 418 301 b 344 261 372 271 358 264 b 251 344 286 244 240 285 b 286 467 258 385 274 425 b 304 533 293 488 303 507 b 279 515 296 528 286 524 b 126 357 228 463 178 410 b 61 289 104 333 83 311 b 26 264 50 279 39 271 b -43 308 -6 250 -43 274 b -37 342 -43 319 -40 332 b 64 581 -12 425 21 504 b 125 588 85 617 92 617 b 28 331 83 507 50 422 b 63 365 40 342 51 353 b 244 550 124 426 183 489 b 299 592 260 567 279 579 b 357 590 318 606 338 604 b 375 538 378 578 379 558 b 354 472 369 515 363 494 b 314 351 342 432 326 393 b 304 294 308 336 308 319 "},"o":{"ha":310,"x_min":0,"x_max":0,"o":"m 178 428 b 322 440 231 432 276 438 b 310 397 357 444 361 404 b 188 388 269 393 229 389 b 143 361 167 386 154 379 b 24 243 110 311 75 247 b -39 299 -15 238 -42 260 b 21 493 -35 368 -14 432 b 107 589 60 515 75 560 b 128 606 114 594 119 601 b 208 561 163 624 208 601 b 194 478 208 533 200 506 b 178 428 192 463 185 449 m 94 381 b 49 411 74 386 57 393 b 26 289 29 368 21 328 b 94 381 43 276 68 318 m 89 474 b 121 439 74 438 108 407 b 89 474 201 614 124 613 "},"p":{"ha":421,"x_min":0,"x_max":0,"o":"m -183 -165 b -210 -125 -201 -161 -208 -149 b 82 557 -228 79 -32 400 b 143 628 100 582 121 606 b 201 615 165 650 178 647 b 75 431 151 560 107 500 b 107 457 86 439 96 449 b 240 539 147 492 188 525 b 303 542 260 543 283 546 b 363 444 344 532 361 504 b 456 407 392 435 431 450 b 369 407 422 407 396 410 b 319 388 353 404 333 399 b 53 351 244 335 146 311 b -149 -122 -65 207 -108 51 b -183 -165 -156 -153 -149 -172 m 157 424 b 254 433 189 428 221 431 b 310 506 299 438 313 454 b 157 424 247 507 181 471 m 122 388 b 294 407 168 361 244 371 b 122 388 221 383 181 389 "},"q":{"ha":585,"x_min":0,"x_max":0,"o":"m 228 526 b 324 601 261 553 292 576 b 388 618 363 633 369 636 b 376 549 407 597 404 585 b 221 336 324 479 269 410 b 99 43 164 246 124 146 b 94 19 97 38 96 32 b 108 38 101 29 106 33 b 478 386 192 176 346 299 b 546 419 499 401 522 413 b 614 404 571 428 597 432 b 610 396 613 400 611 396 b 483 336 563 388 522 364 b 224 110 401 276 290 188 b 119 -92 172 51 132 -12 b 35 -44 76 -106 39 -86 b 39 49 31 -14 32 18 b 182 392 65 172 114 286 b 204 428 190 404 197 415 b 204 436 206 429 204 431 b 181 424 196 432 188 429 b 83 354 147 401 115 376 b 42 335 69 346 56 339 b -22 350 18 328 -4 332 b -22 410 -40 369 -32 390 b 85 540 3 461 39 506 b 228 526 140 585 175 582 m 35 396 b 43 388 38 393 40 390 b 186 492 90 422 138 457 b 35 396 160 583 60 439 "},"r":{"ha":478,"x_min":0,"x_max":0,"o":"m 215 561 b 260 589 228 572 243 582 b 351 536 304 611 350 586 b 346 460 351 511 347 486 b 353 410 347 443 350 428 b 456 426 393 403 424 418 b 514 408 479 432 496 433 b 374 372 469 386 426 368 b 288 463 325 376 288 417 b 253 521 288 526 318 586 b 44 271 165 450 100 364 b 17 224 35 256 25 239 b -26 213 7 208 -7 203 b -56 254 -47 221 -58 233 b -49 283 -51 264 -51 274 b 65 597 -21 392 17 497 b 90 638 74 611 81 625 b 165 633 114 667 132 665 b 58 415 107 571 90 490 b 215 561 110 457 164 522 "},"s":{"ha":276,"x_min":0,"x_max":0,"o":"m 228 558 b 210 567 221 561 215 563 b 192 582 203 571 199 576 b 60 436 142 556 7 497 b 131 357 82 410 106 385 b 192 386 147 364 169 375 b 256 419 213 397 233 408 b 303 406 283 435 278 439 b 146 321 249 371 200 350 b 118 276 131 314 124 292 b -67 49 83 179 17 107 b -151 24 -92 32 -119 22 b -199 119 -207 29 -232 75 b -124 196 -178 147 -153 175 b 68 324 -58 243 6 282 b -7 422 89 336 4 406 b 4 517 -25 444 -14 496 b 153 619 44 564 96 599 b 203 619 168 625 188 625 b 228 558 231 613 238 593 m 29 239 b -167 69 -44 194 -117 150 b 29 239 -103 81 -12 158 "},"t":{"ha":285,"x_min":0,"x_max":0,"o":"m 214 286 b -4 433 -19 31 -118 160 b 119 694 35 531 76 613 b 144 743 128 707 133 721 b 79 743 118 743 99 742 b -279 744 35 743 -236 744 b -332 732 -299 744 -318 754 b -351 731 -335 728 -347 728 b -396 789 -372 743 -393 756 b -350 793 -381 790 -365 793 b 132 785 -265 790 46 789 b 193 817 160 783 176 792 b 322 996 233 878 276 938 b 381 985 344 1025 356 1022 b 240 785 328 926 283 860 l 438 778 b 476 775 450 778 464 778 b 511 739 493 771 507 763 b 483 736 501 738 492 736 b 244 738 403 736 324 736 b 197 711 222 738 208 733 b 50 407 144 614 92 513 b 190 311 -43 161 21 151 b 279 425 226 346 256 383 b 293 440 281 426 289 442 b 303 394 321 432 321 421 b 219 293 276 358 251 324 l 213 286 "},"u":{"ha":396,"x_min":0,"x_max":0,"o":"m 417 401 b 318 285 385 361 353 321 b 199 208 289 254 244 201 b 143 290 160 215 138 247 b 156 340 146 307 150 324 b 174 397 160 356 165 372 b 140 369 158 385 150 376 b 69 315 118 351 96 329 b -19 375 24 290 -26 322 b 64 564 -12 446 21 507 b 115 550 79 585 107 576 b 117 532 118 544 117 536 b 49 424 79 503 61 464 b 203 514 -8 246 179 488 b 240 560 215 529 228 544 b 286 571 253 575 271 581 b 308 532 300 563 314 547 b 208 314 278 457 238 385 b 292 310 160 186 258 272 b 392 426 326 347 360 392 b 421 435 413 447 415 439 b 417 401 428 429 433 424 "},"v":{"ha":415,"x_min":0,"x_max":0,"o":"m 518 707 b 506 685 514 700 513 692 b 172 283 400 544 303 404 b 121 250 158 271 140 260 b -14 306 63 224 -6 250 b -14 396 -21 335 -18 367 b 61 613 -4 471 21 543 b 119 625 75 638 99 642 b 122 582 138 611 131 597 b 47 317 74 500 54 411 b 113 315 47 263 92 292 b 444 707 246 444 336 568 b 518 707 468 738 476 738 "},"±":{"ha":367,"x_min":0,"x_max":0,"o":"m 144 483 b 164 540 151 500 157 521 b 208 561 172 561 189 569 b 221 522 228 554 225 539 b 213 483 217 510 215 496 b 281 467 236 478 257 472 b 239 444 271 443 254 446 b 189 403 199 442 199 442 b 169 321 182 375 176 347 b 119 358 126 310 115 318 b 132 431 122 382 128 406 b 35 453 101 446 64 421 b 144 483 67 485 111 460 m 33 267 b 228 275 97 279 163 285 b 256 251 240 274 253 271 b 231 242 247 247 239 242 b 133 235 199 239 165 238 b 44 228 104 233 74 229 b 33 267 6 225 -25 254 "},":":{"ha":249,"x_min":0,"x_max":0,"o":"m 117 467 b 83 500 92 468 82 476 b 126 558 83 532 104 558 b 168 518 149 558 168 539 b 117 467 167 489 144 467 m 81 264 b 47 297 56 265 46 274 b 90 356 47 329 68 356 b 132 315 113 356 132 336 b 81 264 131 286 108 264 "},"”":{"ha":393,"x_min":0,"x_max":0,"o":"m 156 804 b 204 886 172 832 188 860 b 244 900 217 907 226 910 b 251 861 263 890 263 874 b 156 804 219 826 201 774 m 233 804 b 282 886 250 832 265 860 b 322 900 294 907 304 910 b 329 861 340 890 340 874 b 233 804 297 826 279 774 "},"“":{"ha":393,"x_min":0,"x_max":0,"o":"m 340 879 b 292 797 324 851 308 824 b 251 783 279 776 269 774 b 244 822 233 793 233 810 b 340 879 276 857 294 910 m 263 879 b 214 797 246 851 231 824 b 174 783 201 776 192 774 b 167 822 156 793 156 810 b 263 879 199 857 217 910 "},"’":{"ha":297,"x_min":0,"x_max":0,"o":"m 156 804 b 204 886 172 832 188 860 b 244 900 217 907 226 910 b 251 861 263 890 263 874 b 156 804 219 826 201 774 "},"‘":{"ha":297,"x_min":0,"x_max":0,"o":"m 263 879 b 214 797 246 851 231 824 b 174 783 201 776 192 774 b 167 822 156 793 156 810 b 263 879 199 857 217 910 "},"":{"ha":950,"x_min":0,"x_max":0,"o":"m 840 322 b 324 279 661 338 492 313 b 260 268 303 274 281 271 b 235 268 250 267 242 267 b 171 369 188 275 161 315 l 176 393 b 106 336 149 371 128 353 b 43 293 85 321 64 307 b -31 296 18 278 -7 282 b -50 347 -49 308 -58 325 b -29 393 -44 363 -39 379 b 133 571 14 464 68 524 b 186 601 150 583 168 592 b 358 568 250 633 303 604 b 225 310 301 485 238 413 b 571 372 340 326 456 356 b 800 390 646 383 724 386 b 899 350 838 392 872 379 b 903 306 915 331 917 317 b 849 310 886 289 864 292 b 840 322 844 314 843 318 m 24 346 b 285 572 121 414 201 490 b 24 346 203 575 68 457 "},"":{"ha":1047,"x_min":0,"x_max":0,"o":"m 929 372 b 338 390 736 411 550 403 b 294 360 325 385 306 371 b 89 293 239 304 165 293 b 31 297 71 293 53 296 l 18 269 b -43 101 -3 213 -21 157 b -90 71 -54 71 -62 67 b -125 117 -121 75 -132 86 b -93 218 -117 150 -104 183 l -79 253 b -60 382 -61 293 -42 332 b -17 428 -28 382 -24 406 b 243 996 54 624 136 815 b 296 1072 260 1022 276 1049 b 364 1065 322 1107 342 1103 b 324 1006 350 1044 336 1026 b 114 549 238 861 174 706 b 115 539 114 547 115 544 b 214 608 150 563 181 588 b 299 635 239 625 267 636 b 397 513 368 635 411 582 b 374 435 392 492 382 461 b 422 436 390 435 407 436 b 668 453 504 442 586 450 b 897 444 743 456 821 450 b 990 393 935 442 968 425 b 990 349 1006 372 1004 358 b 936 360 971 335 950 340 b 929 372 932 364 932 368 m 100 411 b 238 428 146 417 192 426 b 311 474 274 429 296 444 b 336 528 319 492 329 510 b 335 588 343 547 353 572 b 272 581 315 606 292 592 b 100 411 200 542 146 483 m 44 336 b 224 383 110 331 167 343 b 44 336 140 383 67 365 "},"":{"ha":565,"x_min":0,"x_max":0,"o":"m 354 675 b 403 740 342 728 351 742 b 465 731 424 740 446 738 b 542 581 531 706 561 649 b 167 253 507 429 321 290 b 36 258 129 242 79 238 b -17 331 4 274 -14 297 b 115 586 -22 433 36 526 b 197 625 139 606 167 619 b 279 599 229 629 256 619 b 290 551 293 586 300 569 b 258 500 281 533 271 515 b 206 501 242 481 231 482 b 239 565 218 524 228 544 b 242 586 242 571 240 578 b 43 319 143 557 39 422 b 211 319 46 238 174 303 b 499 635 333 378 479 488 b 444 692 504 675 486 694 b 354 675 415 690 385 681 "},"":{"ha":958,"x_min":0,"x_max":0,"o":"m 840 322 b 324 279 661 338 492 313 b 260 268 303 274 281 271 b 211 431 242 265 165 292 b 217 469 214 443 218 454 l 182 425 l 50 269 b -18 249 33 249 11 238 b -51 296 -44 260 -53 268 b -46 338 -51 310 -50 325 b 65 528 -24 410 13 474 b 108 563 78 540 93 553 b 221 572 143 586 182 590 b 256 557 231 567 242 563 l 275 600 b 507 994 333 742 408 876 b 599 1083 535 1026 567 1056 b 643 1110 611 1094 626 1103 b 726 1047 689 1128 731 1096 b 711 986 725 1026 719 1006 b 515 694 668 874 601 778 b 350 553 464 644 406 600 b 321 518 339 543 326 532 b 315 325 289 436 199 303 b 571 372 400 342 485 360 b 800 390 646 383 724 386 b 899 350 838 392 872 379 b 903 306 915 331 917 317 b 849 310 886 289 864 292 b 840 322 844 314 843 318 m 392 656 b 499 760 428 690 464 724 b 663 1006 568 832 624 913 b 678 1060 669 1024 672 1042 l 667 1065 b 383 664 529 963 460 810 m 207 542 b 24 315 128 525 39 415 l 207 542 "},"":{"ha":814,"x_min":0,"x_max":0,"o":"m 706 322 b 189 279 526 338 357 313 b 63 263 151 269 103 260 b -12 376 11 268 -22 303 b -32 444 -10 400 -15 419 b 39 501 14 442 21 476 b 121 581 61 533 86 561 b 204 578 150 597 176 596 b 228 508 231 560 239 538 b 101 392 206 447 160 413 b 57 379 88 386 74 383 b 150 313 21 289 89 300 b 436 372 243 329 342 358 b 665 390 511 383 589 386 b 764 350 703 392 738 379 b 768 306 781 331 782 317 b 714 310 751 289 729 292 b 706 322 710 314 708 318 m 76 425 b 181 501 121 436 164 472 b 147 524 204 544 175 547 b 76 425 115 497 89 456 "},"":{"ha":801,"x_min":0,"x_max":0,"o":"m 697 411 b 181 368 518 426 349 401 b 117 357 160 363 138 360 b 106 356 113 356 110 356 b 126 307 113 339 121 322 b 131 185 139 267 138 226 b 69 0 118 119 101 57 b 24 -61 57 -22 40 -43 b -62 -78 0 -86 -31 -90 b -110 -12 -93 -67 -106 -43 b -97 143 -117 40 -111 93 b -35 347 -79 213 -56 279 b -12 436 -26 375 -21 403 b 19 478 6 438 11 458 b 282 878 89 622 169 761 b 364 951 307 904 336 928 b 404 975 376 963 390 969 b 464 964 426 985 446 981 b 478 910 481 949 485 929 b 439 829 467 882 454 854 b 101 431 346 681 231 550 l 67 400 b 243 428 131 410 188 418 b 428 461 304 440 365 451 b 657 479 503 472 581 475 b 756 439 694 481 729 468 b 760 394 772 419 774 406 b 706 399 743 378 721 381 b 697 411 701 403 700 407 m -43 -39 b -21 -19 -31 -29 -25 -25 b 72 296 49 74 78 179 b 44 350 71 314 69 335 b -43 -39 1 225 -51 106 m 413 907 b 140 544 324 853 174 653 b 413 907 249 657 343 772 "},"":{"ha":1104,"x_min":0,"x_max":0,"o":"m 1000 367 b 400 296 843 379 553 361 l 392 279 b 297 88 363 214 332 150 b 161 -75 263 25 217 -29 b 25 -142 121 -107 78 -132 b -144 -93 -40 -153 -96 -133 b -167 11 -178 -64 -187 -28 b -103 94 -150 42 -129 72 b 46 201 -57 135 -7 172 b 324 339 136 251 231 294 b 371 390 347 350 364 364 b 406 517 383 431 399 472 l 368 492 b 188 371 308 451 249 408 b 85 319 156 350 119 335 b -3 335 54 307 24 311 b -21 404 -22 354 -32 376 b -8 436 -17 415 -14 426 b 211 622 43 524 114 588 b 368 561 279 646 329 626 b 392 576 378 567 385 571 b 450 581 410 589 429 596 b 472 518 472 565 481 544 l 449 432 l 424 360 b 960 435 601 400 778 425 b 1058 394 997 436 1032 424 b 1063 350 1075 375 1076 361 b 1008 354 1046 333 1024 336 b 1000 367 1004 358 1003 363 m 315 275 b 53 140 221 233 133 193 b -60 56 13 115 -25 86 b -111 -11 -81 38 -99 14 b -64 -97 -136 -58 -117 -92 b 46 -74 -25 -103 14 -96 b 156 14 85 -47 122 -19 b 313 256 224 83 271 168 b 315 275 314 260 314 264 m 107 485 b 38 363 54 432 33 394 b 324 533 100 375 256 468 b 107 485 301 650 154 532 "},"":{"ha":931,"x_min":0,"x_max":0,"o":"m 833 335 b 317 292 654 350 485 325 b 214 268 285 283 249 275 b 144 358 160 256 135 306 b 168 458 150 392 161 424 b -10 254 101 396 29 340 b -83 257 -28 214 -46 215 l 31 519 l -18 503 b -69 526 -46 494 -47 494 l -46 542 l 4 567 b 117 678 54 592 89 628 b 313 944 171 775 235 865 b 396 1018 339 971 367 994 b 438 1039 407 1028 422 1035 b 504 979 478 1051 514 1019 b 467 899 497 950 483 922 b 294 715 419 829 358 769 b 178 622 257 683 218 651 b 124 558 156 604 136 585 b 86 463 110 528 94 497 b 171 531 114 485 142 508 b 221 540 185 543 201 551 b 244 489 243 529 251 514 b 210 379 233 451 224 414 b 265 329 181 308 211 321 b 564 385 364 346 464 371 b 793 403 639 396 717 399 b 892 363 831 404 865 392 b 896 318 908 343 910 329 b 842 322 879 301 857 304 b 833 335 838 326 836 331 m 232 739 b 451 992 322 788 447 932 b 232 739 357 924 292 833 "},"":{"ha":746,"x_min":0,"x_max":0,"o":"m 644 315 b 83 268 449 336 268 296 b -28 329 32 258 -33 244 b 28 511 -22 394 -3 454 b 44 536 32 519 39 528 b 119 529 72 567 92 564 b 35 372 78 492 49 429 b 89 313 17 294 11 297 b 375 365 185 331 279 351 b 604 383 450 376 528 379 b 703 343 642 385 676 372 b 707 299 719 324 721 310 b 653 303 690 282 668 285 b 644 315 649 307 647 311 m 189 685 b 132 592 169 653 151 625 b 129 683 71 599 113 654 b 189 685 149 714 157 714 "},"":{"ha":679,"x_min":0,"x_max":0,"o":"m 575 315 b -6 251 376 347 175 307 b -150 -35 -61 94 -104 13 b -267 -62 -181 -69 -221 -79 b -415 49 -326 -39 -372 3 b -415 111 -432 68 -436 94 b -68 292 -307 201 -164 207 b -18 379 -43 310 -29 340 b 14 522 -3 433 4 479 b 42 546 18 550 21 551 b 69 514 64 538 74 539 l 56 446 l 10 300 b 535 383 169 353 361 374 b 633 343 572 385 607 372 b 638 299 650 324 651 310 b 583 303 621 282 599 285 b 575 315 579 307 578 311 m -81 233 b -358 89 -176 175 -292 140 b -357 44 -375 76 -374 58 b -278 -21 -331 22 -304 0 b -228 -21 -261 -35 -244 -33 b -200 6 -217 -14 -207 -6 b -81 233 -146 72 -111 151 m 53 604 b 39 658 32 614 32 636 b 50 690 42 669 46 679 b 85 703 57 708 71 707 b 83 619 97 697 90 635 b 53 604 74 596 86 588 "},"":{"ha":932,"x_min":0,"x_max":0,"o":"m 835 296 b 318 253 656 311 486 286 b 94 328 233 229 131 225 b 82 372 89 342 88 356 b 13 307 49 361 24 346 b -24 132 -1 249 -21 193 b -72 183 -65 140 -75 149 b -57 268 -71 213 -65 240 b 3 464 -37 333 -15 399 b 14 496 8 475 11 485 b -31 532 -3 506 -28 501 l -8 538 b 58 597 22 544 44 565 b 253 942 106 721 169 836 b 346 1038 279 976 311 1010 b 424 997 379 1064 422 1040 b 414 951 424 982 419 965 b 378 874 404 925 393 899 b 147 589 317 765 242 669 b 81 492 115 563 93 531 l 58 433 b 251 574 144 479 218 551 b 288 515 269 586 318 547 b 144 410 256 482 197 440 b 294 296 154 286 196 278 b 565 346 385 313 475 332 b 794 364 640 357 718 360 b 893 324 832 365 867 353 b 897 279 910 304 911 290 b 843 283 881 263 858 265 b 835 296 839 288 838 292 m 326 938 b 150 649 254 854 192 739 b 364 913 231 721 321 838 b 326 938 417 1007 369 990 "},"":{"ha":747,"x_min":0,"x_max":0,"o":"m 632 211 b 115 168 453 226 283 201 b -47 221 56 153 -31 132 b -36 344 -53 263 -44 304 b 6 501 -26 396 -7 447 b -28 513 -4 506 -18 507 b -50 543 -36 518 -40 529 b -17 549 -33 546 -25 546 b 54 613 15 560 40 579 b 242 935 103 726 163 836 b 342 1035 271 971 307 1003 b 378 1057 351 1044 367 1050 b 460 1001 421 1082 468 1036 b 433 926 454 976 446 949 b 279 731 392 853 339 789 b 126 588 231 682 178 635 b 99 554 117 578 104 567 b 21 325 67 479 39 404 b 85 210 3 239 -14 194 b 363 261 178 226 269 249 b 592 279 438 272 515 275 b 690 239 629 281 664 268 b 694 194 707 219 708 206 b 640 199 678 178 656 181 b 632 211 636 203 635 207 m 415 1014 b 171 693 333 972 197 792 b 415 1014 268 789 360 881 "},"":{"ha":1201,"x_min":0,"x_max":0,"o":"m 1097 317 b 490 257 888 358 703 297 b 393 318 439 247 393 264 b 407 397 393 344 399 372 b 456 525 421 440 439 482 b 431 529 479 578 463 561 b 315 388 393 482 354 433 b 258 336 299 368 278 351 b 190 328 238 319 215 314 b 154 390 165 340 154 363 b 161 440 156 407 158 424 b 163 468 161 447 161 454 b -7 264 94 408 47 332 b -56 247 -26 240 -35 238 b -76 289 -75 256 -82 269 b -67 317 -74 299 -71 308 b 64 581 -24 404 19 493 b 85 613 69 592 76 603 b 143 608 107 639 117 639 l 61 451 b 164 543 99 485 133 513 b 213 547 179 556 194 556 b 232 504 229 538 236 522 l 218 433 b 207 369 214 413 210 390 b 479 656 285 403 418 588 b 508 679 488 665 497 675 b 547 676 521 683 538 682 b 565 642 557 669 567 653 b 550 589 564 624 557 607 l 465 385 b 531 311 428 294 453 300 b 828 367 629 328 729 353 b 1057 385 903 378 981 381 b 1156 344 1094 386 1129 374 b 1160 300 1172 325 1174 311 b 1106 304 1143 283 1121 286 b 1097 317 1101 308 1100 313 "},"":{"ha":1046,"x_min":0,"x_max":0,"o":"m 944 317 b 364 263 742 343 556 288 b 251 344 310 249 238 269 b 286 467 258 385 274 425 b 304 533 293 488 303 507 b 279 515 296 528 286 524 l 126 357 l 61 289 b 26 264 50 279 39 271 b -43 308 -6 250 -43 274 b -37 342 -43 319 -40 332 b 64 581 -12 425 21 504 b 125 588 85 617 92 617 b 28 331 83 507 50 422 b 63 365 40 342 51 353 l 244 550 b 299 592 260 567 279 579 b 357 590 318 606 338 604 b 375 538 378 578 379 558 b 322 378 363 489 349 438 b 385 313 303 331 296 297 b 675 367 482 331 578 353 b 904 385 750 378 828 381 b 1003 344 942 386 976 374 b 1007 300 1019 325 1021 311 b 953 304 990 283 968 286 b 944 317 949 308 947 313 "},"":{"ha":881,"x_min":0,"x_max":0,"o":"m 772 436 b 256 393 593 451 424 426 b 192 382 235 388 213 385 b 164 382 182 381 172 381 b 143 361 156 378 149 371 b 24 243 110 311 75 247 b -39 299 -15 238 -42 260 b 21 493 -35 368 -14 432 b 107 589 60 515 75 560 b 128 606 114 594 119 601 b 208 561 163 624 208 601 b 194 478 208 533 200 506 b 178 428 192 463 185 449 l 192 428 b 503 486 296 446 399 471 b 732 504 578 497 656 500 b 831 464 769 506 804 493 b 835 419 847 444 849 431 b 781 424 818 403 796 406 b 772 436 776 428 775 432 m 89 474 b 121 439 74 438 108 407 b 89 474 201 614 124 613 m 94 381 b 49 411 74 386 57 393 b 26 289 29 368 21 328 b 94 381 43 276 68 318 "},"":{"ha":1053,"x_min":0,"x_max":0,"o":"m 953 374 b 357 410 749 422 557 414 b 319 388 344 407 329 394 b 53 351 244 335 146 311 b -149 -122 -65 207 -108 51 b -183 -165 -156 -153 -149 -172 b -210 -125 -201 -161 -208 -149 b 82 557 -228 79 -32 400 b 143 628 100 582 121 606 b 201 615 165 650 178 647 b 75 431 151 560 107 500 l 107 457 b 240 539 147 492 188 525 b 303 542 260 543 283 546 b 363 447 343 532 360 504 b 693 461 472 449 582 461 b 924 446 769 461 847 453 b 1015 393 960 443 993 425 b 1013 349 1029 371 1028 357 b 960 360 994 333 972 340 b 953 374 956 365 956 369 m 157 424 b 254 433 189 428 221 431 b 310 506 299 438 313 454 b 157 424 247 507 181 471 m 122 388 b 294 407 168 361 244 371 b 122 388 217 397 178 397 "},"":{"ha":1282,"x_min":0,"x_max":0,"o":"m 1161 428 b 356 236 900 456 593 431 b 224 110 307 194 258 151 b 119 -92 172 51 132 -12 b 35 -44 76 -106 39 -86 b 39 49 31 -14 32 18 b 182 392 65 172 114 286 l 204 428 b 204 436 206 429 204 431 b 181 424 196 432 188 429 b 83 354 147 401 115 376 b 42 335 69 346 56 339 b -22 350 18 328 -4 332 b -22 410 -40 369 -32 390 b 85 540 3 461 39 506 b 228 526 140 585 175 582 l 324 601 b 388 618 363 633 369 636 b 376 549 407 597 404 585 b 221 336 324 479 269 410 b 99 43 164 246 124 146 b 94 19 97 38 96 32 l 108 38 b 311 263 157 119 232 196 b 1121 496 540 454 858 506 b 1219 456 1158 494 1193 485 b 1224 411 1236 436 1238 422 b 1169 415 1207 394 1185 397 b 1161 428 1165 419 1164 424 m 43 388 l 186 492 b 35 396 160 583 60 439 "},"":{"ha":1103,"x_min":0,"x_max":0,"o":"m 996 426 b 415 372 793 453 607 397 b 396 371 408 371 401 371 b 374 372 389 371 381 371 b 288 463 325 376 288 417 b 253 521 288 526 318 586 b 44 271 165 450 100 364 l 17 224 b -26 213 7 208 -7 203 b -56 254 -47 221 -58 233 b -49 283 -51 264 -51 274 b 65 597 -21 392 17 497 b 90 638 74 611 81 625 b 165 633 114 667 132 665 b 58 415 107 571 90 490 b 215 561 110 457 164 522 b 260 589 228 572 243 582 b 351 536 304 611 350 586 b 346 460 351 511 347 486 b 460 425 329 385 418 417 b 726 476 547 440 635 463 b 956 494 801 488 879 490 b 1054 454 993 496 1028 483 b 1058 410 1071 435 1072 421 b 1004 414 1042 393 1019 396 b 996 426 1000 418 999 422 "},"":{"ha":778,"x_min":0,"x_max":0,"o":"m 675 450 b 125 292 474 426 304 364 b 118 276 125 289 118 278 b -67 49 83 179 17 107 b -151 24 -92 32 -119 22 b -199 119 -207 29 -232 75 b -124 196 -178 147 -153 175 b 68 324 -58 243 6 282 b -7 422 89 336 4 406 b 4 517 -25 444 -14 496 b 153 619 44 564 96 599 b 203 619 168 625 188 625 b 228 558 231 613 238 593 b 210 567 221 561 215 563 b 192 582 203 571 199 576 b 60 436 142 556 7 497 b 131 343 81 411 107 372 b 400 444 219 379 310 413 b 621 508 472 471 547 489 b 726 489 658 517 694 511 b 739 446 746 472 750 460 b 685 439 726 426 704 424 b 675 450 681 442 678 446 m 29 239 b -167 69 -44 194 -117 150 b 29 239 -103 81 -12 158 "},"":{"ha":1047,"x_min":0,"x_max":0,"o":"m 931 458 b 150 222 714 533 371 428 b -4 433 -37 56 -107 186 b 119 694 35 531 76 613 b 144 743 128 707 133 721 b 79 743 118 743 99 742 b -53 744 35 743 -10 744 b -106 732 -72 744 -92 754 b -125 731 -108 728 -121 728 b -169 789 -146 743 -167 756 b -124 793 -154 790 -139 793 b 132 785 -39 790 46 789 b 193 817 160 783 176 792 b 322 996 233 878 276 938 b 381 985 344 1025 356 1022 b 240 785 328 926 283 860 l 438 778 b 476 775 450 778 464 778 b 511 739 493 771 507 763 b 483 736 501 738 492 736 b 244 738 403 736 324 736 b 197 711 222 738 208 733 b 50 407 144 614 92 513 b 125 254 -31 196 6 160 b 890 526 379 454 639 556 b 989 486 928 522 963 515 b 993 442 1006 467 1007 453 b 939 446 976 425 954 428 b 931 458 935 450 933 454 "},"":{"ha":956,"x_min":0,"x_max":0,"o":"m 846 267 b 329 224 667 282 497 257 b 199 208 292 218 236 200 b 143 290 160 215 138 247 b 156 340 146 307 150 324 l 174 397 b 140 369 158 385 150 376 b 69 315 118 351 96 329 b -19 375 24 290 -26 322 b 64 564 -12 446 21 507 b 115 550 79 585 107 576 b 117 532 118 544 117 536 b 49 424 79 503 61 464 b 203 514 -8 246 179 488 l 240 560 b 286 571 253 575 271 581 b 308 532 300 563 314 547 b 238 378 288 479 261 428 b 297 265 183 263 196 246 b 576 317 390 282 483 303 b 806 335 651 328 729 331 b 904 294 843 336 878 324 b 908 250 921 275 922 261 b 854 254 892 233 869 236 b 846 267 850 258 849 263 "},"":{"ha":1038,"x_min":0,"x_max":0,"o":"m 915 469 b 399 426 736 485 567 460 b 335 415 378 421 356 418 b 300 418 321 414 310 414 b 172 283 260 371 218 326 b 121 250 158 271 140 260 b -14 306 63 224 -6 250 b -14 396 -21 335 -18 367 b 61 613 -4 471 21 543 b 119 625 75 638 99 642 b 122 582 138 611 131 597 b 47 317 74 500 54 411 b 113 315 47 263 92 292 b 419 699 246 444 306 526 b 513 626 461 764 574 718 b 485 490 432 508 238 442 b 646 519 538 501 592 511 b 875 538 721 531 799 533 b 974 497 913 539 947 526 b 978 453 990 478 992 464 b 924 457 961 436 939 439 b 915 469 919 461 918 465 "},"":{"ha":1179,"x_min":0,"x_max":0,"o":"m 1057 457 b 540 414 878 472 708 447 b 476 403 519 408 497 406 b 425 414 456 400 439 403 b 322 267 400 360 365 310 b 224 246 294 239 261 231 b 174 324 188 258 179 290 b 171 385 171 342 172 360 b 110 313 147 357 129 333 b 63 263 94 294 79 278 b 0 257 43 246 21 244 b 61 572 -68 297 15 504 b 99 600 71 586 76 603 b 132 564 118 597 129 589 b 68 343 93 557 1 251 b 172 478 104 388 139 432 b 211 497 183 490 193 500 b 244 458 236 494 247 482 b 232 351 240 422 233 388 b 310 313 228 251 269 265 b 381 431 335 342 360 385 b 386 444 382 435 386 440 b 421 651 389 557 400 618 b 483 675 433 671 458 692 b 501 619 500 665 506 643 b 439 443 488 549 464 506 b 788 507 556 461 671 490 b 1017 525 863 518 940 521 b 1115 485 1054 526 1089 514 b 1119 440 1132 465 1133 451 b 1065 444 1103 424 1081 426 b 1057 457 1061 449 1060 453 "},"":{"ha":807,"x_min":0,"x_max":0,"o":"m 711 294 b 271 265 579 328 421 297 b 32 265 208 251 82 207 b 1 321 19 279 8 299 l -76 221 b -115 249 -101 189 -143 210 b -26 364 -86 288 -57 326 b -7 417 -14 381 -7 396 b 1 549 -7 461 -3 504 b 25 576 3 563 4 578 b 56 543 43 575 57 561 b 50 463 56 517 51 489 b 228 607 100 504 176 574 b 286 599 247 621 267 621 b 235 558 268 585 250 572 l 68 394 b 54 365 61 388 54 375 b 260 300 61 236 182 285 b 671 363 394 328 528 354 b 769 322 708 364 743 351 b 774 278 786 303 788 289 b 719 282 757 261 735 264 b 711 294 715 286 714 290 "},"":{"ha":1038,"x_min":0,"x_max":0,"o":"m 938 492 b 560 372 803 468 679 424 b 447 319 522 351 485 336 b 394 296 432 310 413 303 b 374 263 385 288 378 276 b 297 68 350 197 325 132 b 178 -101 268 4 231 -54 b -72 -117 100 -169 14 -175 b -100 32 -132 -76 -144 -26 b -1 131 -72 68 -37 101 b 292 303 88 201 189 256 b 350 368 322 317 342 335 b 390 499 361 413 376 456 b 399 539 393 508 394 519 l 336 489 l 122 326 b 60 289 103 313 81 301 b -11 297 35 276 10 281 b -31 363 -33 315 -36 338 b 72 592 -10 446 28 521 b 135 590 93 622 114 621 l 140 576 b 111 553 129 568 115 563 b 79 360 89 503 -32 276 l 368 583 l 406 613 b 449 613 419 624 433 621 b 469 574 464 603 472 590 l 463 544 b 399 347 443 482 414 408 b 665 472 488 388 575 435 b 882 547 735 503 808 525 b 988 533 918 558 954 556 b 1003 492 1008 519 1014 506 b 949 482 990 471 968 468 l 938 492 m 310 271 b -67 -25 190 214 -15 94 b -43 -99 -81 -56 -72 -79 b 82 -101 -3 -125 40 -124 b 178 -14 121 -82 151 -49 b 290 201 226 53 261 125 b 310 271 296 217 301 249 "},"":{"ha":926,"x_min":0,"x_max":0,"o":"m 819 454 b 342 251 644 413 492 336 b 307 231 331 243 319 236 b -6 -104 242 94 82 -43 b -100 -153 -35 -124 -68 -139 b -146 -158 -114 -158 -131 -160 b -204 -49 -208 -151 -236 -101 b -142 26 -187 -21 -167 6 b 207 246 -49 107 75 174 b 203 388 272 282 328 435 b 143 400 172 378 157 381 b 154 454 128 422 143 438 b 239 561 183 489 211 525 b 247 581 243 565 246 572 b 25 389 157 535 76 479 b 3 449 -11 406 -15 419 b 32 486 11 463 21 475 b 214 625 83 543 146 589 b 261 642 229 632 246 639 b 315 574 303 647 331 613 b 283 519 307 554 294 538 b 233 451 268 497 251 475 b 336 372 292 442 328 419 b 332 299 338 357 335 321 b 547 417 403 339 474 381 b 760 507 615 451 689 479 b 865 499 794 519 832 518 b 883 458 888 486 893 474 b 831 446 874 438 851 433 b 819 454 825 449 824 451 m 183 174 b -40 32 111 140 21 81 b -128 -49 -71 8 -100 -19 b -160 -114 -143 -64 -156 -82 b 183 174 -22 -54 96 64 "},"#":{"ha":893,"x_min":0,"x_max":0,"o":"m 300 29 b 257 82 257 35 247 43 b 318 272 275 147 296 210 b 381 418 335 319 358 365 b 226 390 325 408 275 400 b 204 372 218 389 208 381 b 106 143 171 296 136 219 b 75 121 99 126 93 117 b 43 154 60 126 40 133 b 58 204 46 171 51 188 b 125 368 79 256 101 308 b 57 346 99 360 78 353 b -4 368 22 332 22 332 b 33 392 8 376 21 386 b 131 424 65 404 97 415 b 165 450 147 428 158 433 b 207 539 176 476 190 504 b 125 519 175 532 149 528 b 71 481 103 513 71 517 b 60 479 65 479 63 478 b 19 514 39 483 17 492 b 54 544 21 526 40 540 b 186 579 97 558 142 571 b 253 628 218 585 238 597 b 456 972 313 747 378 864 b 490 1017 467 988 478 1003 b 563 1010 518 1049 528 1049 b 314 599 464 885 390 744 b 482 613 374 603 426 608 b 539 711 501 646 518 679 b 674 908 583 778 628 843 b 703 940 682 919 692 931 b 768 933 729 965 744 963 b 558 617 686 838 624 731 b 618 619 583 618 601 619 b 785 613 674 618 729 617 b 850 565 821 610 832 600 b 835 563 844 564 838 561 b 739 581 804 581 772 581 b 564 575 681 579 622 576 b 519 544 542 575 528 567 b 489 485 513 526 501 510 b 556 489 515 486 536 488 b 671 492 594 490 633 494 b 751 446 703 490 736 483 b 739 440 746 444 742 440 b 540 442 672 463 607 440 b 421 351 475 442 444 408 b 307 40 379 249 328 150 b 300 29 306 36 303 33 m 457 568 b 290 553 396 563 344 557 b 240 447 275 519 260 488 b 396 469 299 456 347 463 b 415 485 403 471 411 478 b 457 568 429 508 440 533 "},"!":{"ha":351,"x_min":0,"x_max":0,"o":"m 39 331 b 96 488 58 386 75 438 b 390 1101 185 696 285 900 b 426 1129 399 1117 404 1135 b 450 1086 447 1124 457 1107 b 428 1031 444 1067 436 1049 b 219 597 358 886 288 742 b 101 322 178 507 140 414 b 54 306 90 294 76 289 b 39 331 47 313 43 324 m -6 106 b 17 192 1 135 7 164 b 81 206 29 229 43 231 b 49 107 69 174 61 139 b -6 106 38 81 19 93 "},"\"":{"ha":393,"x_min":0,"x_max":0,"o":"m 156 804 b 204 886 172 832 188 860 b 244 900 217 907 226 910 b 251 861 263 890 263 874 b 156 804 219 826 201 774 m 233 804 b 282 886 250 832 265 860 b 322 900 294 907 304 910 b 329 861 340 890 340 874 b 233 804 297 826 279 774 "},"":{"ha":3976,"x_min":0,"x_max":0,"o":"m 1275 89 b 1319 97 1290 90 1304 93 b 1319 72 1321 89 1321 81 b 1182 3 1306 7 1242 -6 b 974 415 990 26 943 242 b 1207 946 1006 593 1107 792 b 1279 1061 1213 956 1293 1068 b 750 432 1144 999 882 629 b 697 349 732 404 713 376 b 556 350 660 288 590 286 b 600 765 483 481 556 633 b 614 835 604 778 615 817 b 101 115 429 626 256 369 b 72 68 92 100 82 85 b 24 54 60 50 44 46 b -3 96 4 63 -7 74 b 13 167 1 119 6 143 b 213 667 67 339 138 503 b 368 981 263 772 317 876 b 421 990 382 1010 406 1013 b 424 956 426 982 428 965 b 379 849 410 919 394 885 b 157 340 306 679 231 510 b 119 226 154 331 117 240 b 563 842 240 407 404 669 b 632 911 585 865 608 888 b 692 915 651 928 671 928 b 713 867 713 903 721 892 b 686 789 706 840 697 815 b 610 553 660 710 628 633 b 697 422 567 344 621 310 b 1307 1136 863 669 1153 1065 b 1354 1063 1392 1176 1393 1125 b 1038 467 1246 894 1101 756 b 1275 89 999 289 1010 64 m 3906 351 b 3911 307 3924 332 3924 318 b 3856 311 3894 290 3871 293 b 3847 324 3851 315 3850 319 b 3329 281 3668 339 3497 314 b 3265 269 3308 275 3286 272 b 3240 269 3256 268 3247 268 b 3176 371 3193 276 3167 317 l 3182 394 b 3111 338 3154 372 3133 354 b 3047 294 3089 322 3068 308 b 2974 297 3022 279 2997 283 b 2954 349 2956 310 2946 326 b 2967 379 2958 358 2963 369 b 2900 374 2946 374 2924 372 b 2814 464 2851 378 2814 418 b 2779 522 2814 528 2844 588 b 2569 272 2690 451 2625 365 b 2542 224 2560 256 2550 240 b 2499 213 2532 210 2518 203 b 2469 256 2478 221 2467 235 b 2476 285 2474 265 2474 275 b 2486 322 2479 297 2483 310 b 2460 294 2478 313 2469 303 l 2453 288 l 2454 288 b 2214 376 2238 50 2136 143 b 2060 306 2161 347 2108 326 b 2022 264 2039 297 2029 283 b 1946 68 1999 197 1974 132 b 1825 -101 1915 4 1878 -54 b 1575 -117 1747 -171 1661 -176 b 1547 32 1515 -76 1501 -26 b 1646 131 1575 68 1610 101 b 1939 304 1735 201 1836 256 b 1999 369 1971 318 1990 336 b 2039 500 2010 414 2025 457 b 2047 540 2042 510 2043 521 b 1985 490 2022 521 2003 506 b 1769 328 1913 436 1840 382 b 1707 290 1750 314 1728 303 b 1636 299 1682 278 1657 282 b 1615 357 1615 314 1611 335 b 1513 292 1581 335 1546 313 b 1447 269 1492 281 1469 272 b 1353 371 1381 263 1342 306 b 1358 394 1354 376 1356 382 b 1288 338 1331 372 1310 354 b 1225 294 1267 322 1246 308 b 1150 297 1200 279 1175 283 b 1132 349 1133 310 1124 326 b 1153 394 1138 364 1143 381 b 1315 572 1196 465 1250 525 b 1368 604 1332 585 1350 593 b 1542 569 1432 636 1485 607 b 1407 307 1483 485 1418 413 b 1478 326 1436 306 1457 315 b 1632 417 1524 353 1585 389 b 1719 593 1654 481 1685 538 b 1782 592 1740 624 1761 624 b 1788 578 1785 586 1786 581 b 1758 554 1776 569 1763 564 b 1726 361 1736 504 1615 278 b 2017 585 1822 435 1921 510 b 2054 615 2029 594 2042 604 b 2097 615 2068 626 2082 624 b 2118 575 2113 604 2121 592 b 2111 546 2115 565 2114 556 b 2046 342 2092 481 2061 404 b 2213 418 2099 364 2164 388 b 2233 429 2221 422 2228 428 b 2235 435 2233 432 2235 433 b 2360 697 2274 532 2317 615 b 2385 746 2368 710 2374 724 b 2319 746 2358 746 2339 744 b 1960 747 2274 746 2003 747 b 1907 735 1939 747 1921 757 b 1886 733 1904 731 1890 731 b 1842 792 1867 746 1844 758 b 1888 796 1857 793 1872 796 b 2372 788 1974 793 2285 792 b 2433 819 2400 786 2417 794 b 2563 999 2474 881 2517 940 b 2621 988 2585 1028 2596 1025 b 2481 788 2568 929 2524 863 l 2679 781 b 2717 778 2690 781 2706 781 b 2753 742 2735 774 2749 765 b 2725 739 2743 740 2733 739 b 2485 740 2643 739 2564 739 b 2438 714 2463 740 2449 736 b 2290 408 2385 615 2331 514 b 2431 313 2196 161 2260 151 b 2518 425 2465 347 2494 383 b 2590 599 2539 483 2563 543 b 2615 639 2599 613 2606 628 b 2690 636 2639 669 2657 668 b 2583 417 2632 572 2615 492 b 2742 563 2635 458 2690 524 b 2786 590 2754 575 2769 583 b 2878 538 2831 613 2876 588 b 2872 461 2878 513 2874 488 b 2879 411 2874 444 2876 429 b 2982 428 2919 404 2950 419 b 2999 431 2989 429 2994 431 b 3139 572 3038 486 3085 533 b 3192 604 3156 585 3174 593 b 3364 569 3256 636 3308 607 b 3231 311 3307 486 3243 414 b 3578 374 3346 328 3461 357 b 3807 392 3653 385 3731 388 b 3906 351 3844 393 3879 381 m 1206 347 b 1467 575 1303 415 1383 492 b 1206 347 1385 576 1250 458 m 1939 201 b 1958 272 1944 218 1950 250 b 1581 -25 1838 215 1632 94 b 1604 -99 1567 -56 1575 -79 b 1729 -101 1644 -125 1688 -124 b 1825 -14 1768 -82 1799 -49 b 1939 201 1874 53 1910 125 m 3028 347 b 3290 575 3126 415 3207 492 b 3028 347 3208 576 3074 458 "}}}
